<svg id="aeeef5f3-b08f-4acb-a103-e3b538554a94" data-name="Layer 1" xmlns="http://www.w3.org/2000/svg" xmlns:xlink="http://www.w3.org/1999/xlink" viewBox="0 0 800 600">
  <defs>
    <style>
      .af3db9e5-653e-4ff7-9299-325b9460ad4f {
        fill: url(#a60aca00-bb4a-42cb-9409-c2e331954094);
      }

      .a047fc96-8721-4559-9f80-cb35198fbb57, .a8e0806b-366f-4190-befd-b898445ff7b2, .b4160f7f-11b4-42be-acb9-8da36de05983, .be39a84b-0313-4a90-b06a-d8b1a448834d, .e9a84690-97d0-46cb-bf47-67a5085b92fa {
        opacity: 0.56;
      }

      .b4160f7f-11b4-42be-acb9-8da36de05983, .f70dc79c-71e9-4612-93a5-dd83222b8724 {
        fill: #93c2e7;
      }

      .e309ef9c-d7d2-4a40-9628-b330491cbe57 {
        fill: #7dab4c;
      }

      .ad20dc1d-5446-429a-94e2-281c985e1a63 {
        fill: #73a141;
      }

      .aac109e6-9534-40d9-9f58-f88e4e254f6b {
        fill: #579025;
      }

      .b828b674-9b02-4038-bee4-a0dd5fa6c30f {
        fill: #468216;
      }

      .b48bfcd4-e43e-4df0-980f-4585d14f1f80 {
        fill: #37700c;
      }

      .a76c55c4-9898-4871-90f5-64788c41d251, .a8a6f48c-712d-4dd4-bc7a-2b60c3be9b21, .eee25282-a1d9-4807-896d-f9528f312928 {
        opacity: 0.35;
      }

      .ff3a60b1-4a56-429b-bbb4-e779027abc63 {
        fill: #fff;
      }

      .e9703e3d-6407-49df-b48d-20bfb349a36a {
        fill: #47834d;
      }

      .b1771c86-dc72-45ff-aff4-5dc8b588cee3 {
        fill: #939324;
      }

      .b9bc5ca5-43f2-4cd9-b46d-aa55f42c177d {
        fill: #45824d;
      }

      .a80451e1-83f0-4f0c-82a1-c8e99f1967a6, .b203fef5-d1ad-4610-8278-1d6a374d2339 {
        fill: none;
      }

      .a80451e1-83f0-4f0c-82a1-c8e99f1967a6 {
        stroke: #f90d0d;
        stroke-miterlimit: 10;
      }

      .bfdb6982-d0d0-4e98-a074-219fd79da635 {
        fill: #85b31e;
      }

      .be39a84b-0313-4a90-b06a-d8b1a448834d {
        fill: #bbf94e;
      }

      .ad1d266e-833f-4f13-abd4-fe803bf87390 {
        fill: #95bc2a;
      }

      .b08080a6-1459-40e8-93ae-3ecb30d2716e {
        fill: #649d0c;
      }

      .a8a6f48c-712d-4dd4-bc7a-2b60c3be9b21 {
        fill: #619912;
      }

      .a1ff12ca-2879-42ff-b3a0-09b9c2af14f7 {
        fill: #5c8530;
      }

      .ad0e57b8-dba3-423b-8eca-26693a1969b7 {
        fill: #d9eeec;
      }

      .ab37f5f3-16f7-4e2f-84f6-ff6a2a81023e {
        fill: #f8feef;
      }

      .fd220792-4ed9-4de8-bf6c-a8aa2cf22be0 {
        fill: #bbc423;
      }

      .e455be09-4648-437e-8fef-47688b699d5c, .e9a84690-97d0-46cb-bf47-67a5085b92fa {
        fill: #a5b31b;
      }

      .be729c01-1b95-4ef0-8243-423be0948d9e {
        fill: #aec003;
      }

      .bf5e72ff-3161-4129-991b-8ef0cb497160, .f9c2d7dd-3f5d-41cd-aae6-1134b2e41377 {
        fill: #9bb200;
      }

      .b4af43b6-7284-48a9-9e76-0a00978cbf01 {
        fill: #bbcb11;
      }

      .bf5e72ff-3161-4129-991b-8ef0cb497160 {
        opacity: 0.75;
      }

      .a6a64f4e-6248-4d7e-8d47-14503f959e20 {
        fill: #c4d11d;
      }

      .fef78d9c-38ea-4ccb-8ee3-a8ca4e93ebf5 {
        fill: #c7d325;
      }

      .f3b049c4-43d9-491d-a7b1-7dd273d10c18 {
        fill: #60c200;
      }

      .b4cbc67e-05a9-47f9-ac4f-008c3b558af4 {
        fill: #4e913e;
      }

      .a76c55c4-9898-4871-90f5-64788c41d251, .e917fbfe-c1e1-4ef5-a9c7-b597f83bc0cb {
        fill: #505604;
      }

      .a2f8d438-68d3-4b57-9348-5ea5a79dd057 {
        fill: #57ad1d;
      }

      .a8e5ae4e-fa95-4154-ae65-440d2c0929f0 {
        fill: #9f744b;
      }

      .e0daf700-2a0b-4b0a-88b8-fe23c8f9b4c9 {
        fill: #c28f67;
        opacity: 0.45;
      }

      .a73aab60-01e4-4da5-95f8-ae9998d3904e {
        fill: #c48a18;
      }

      .b707d908-3653-4333-bebc-5087c01e3a6e {
        fill: #d8912a;
      }

      .e1574a02-bd69-475e-adaf-a5ca56842edb {
        opacity: 0.3;
      }

      .a7cb47c9-ea0b-4e35-b6ec-2d929da8ed3a, .ee038d3e-4bf5-4928-8fb0-bf15e43f74f5 {
        fill: #662f09;
      }

      .a8e0806b-366f-4190-befd-b898445ff7b2, .babba582-b9e2-4eb1-8a15-6ae753b8f3a2 {
        fill: #473716;
      }

      .f7c0d3e3-c1f5-4d10-a653-1829a7e9c036 {
        fill: #bc6e11;
      }

      .fe8ffc7e-782e-463b-aeee-e401b968289d {
        fill: #dd9833;
      }

      .a944126a-5e59-4a78-a7db-eab9244ab972 {
        fill: #e5ab42;
      }

      .a9787c89-d324-446d-9698-550710acaafe {
        fill: #f7c74d;
      }

      .fb2bbffd-66da-4f4f-95de-3fa9c04eceab {
        fill: #f7d569;
      }

      .b5944685-a90b-4eea-a219-f23919f790e6 {
        fill: #f9da58;
      }

      .a6650c0b-7185-48ca-ae86-0c61c8d0e0e2 {
        fill: #fcd017;
      }

      .b76c96a4-51a0-4ad8-84da-bdf37a7ffc2d {
        opacity: 0.68;
      }

      .a63fd210-9356-4f72-9f66-d86730727c71 {
        fill: #519d31;
      }

      .b37c6620-cb53-4701-be8f-e074b4d0b7b6 {
        fill: #47854c;
      }

      .aff0e88e-ba57-4661-aab1-4ab9bc51154b {
        fill: #47794c;
      }

      .f5b87c0f-20cc-452e-9db5-93765cfeca41 {
        fill: #726128;
      }

      .a20c66fd-2af7-4ca1-88b6-24e7358be67e {
        fill: #56471c;
      }

      .b7336bb9-2006-4503-ad54-fec3a3d65b3b {
        fill: #4e953a;
      }

      .a1a37020-709d-4748-9e9e-faa209e47479 {
        fill: #44834d;
      }

      .e005b397-8a00-4b1f-8d1f-c7e2e4bdcddc {
        fill: #47754f;
      }

      .e917fbfe-c1e1-4ef5-a9c7-b597f83bc0cb {
        opacity: 0.65;
      }

      .a7cb47c9-ea0b-4e35-b6ec-2d929da8ed3a {
        opacity: 0.15;
      }

      .f4fc20c5-ffdf-4d0a-b461-a82f49b0d6e2 {
        fill: #35b779;
      }

      .ad1bccf9-4bfe-4699-abea-58902777aa88 {
        fill: #28a380;
      }

      .ff22c195-0fea-441c-8c89-22ea4347a44e {
        fill: #98cdf4;
      }

      .f706eec9-2357-48ce-8461-a2e49def586b {
        fill: #178467;
      }

      .a772c623-7358-4725-ae54-26f84ccd295d {
        fill: #1aa36b;
      }

      .fe30e6e5-e355-47e0-b50b-eef53b027f96 {
        fill: #ffd100;
      }

      .e47b64e8-c97d-4fd8-91b7-a4a4fe8de7f7 {
        fill: #ff3722;
      }

      .aae15209-20fa-41f0-8be5-d3b5bd373f0d {
        fill: #385e3d;
      }

      .b18aa12b-5bbb-4bba-b8bf-b6ce8d4b0f38 {
        fill: #8c878b;
      }

      .efd7c980-4f3c-4cb4-bdb6-7bc387005701 {
        fill: #494846;
      }

      .f564565b-442d-4f6b-a1ca-80e650b36b9c {
        fill: #2e2b26;
      }

      .e4cab075-29fa-47fd-a0dc-d51208013f4e {
        fill: #393847;
      }

      .bf3bfad5-4a70-4d4d-a500-2721838e3045 {
        fill: #1e1e1e;
      }

      .eae66881-5aba-45f8-b2e0-7405c23ecc75 {
        fill: #2f2f2f;
      }

      .af86175f-b900-4e26-a3a4-098cd246c1a8 {
        fill: #6a3f52;
      }

      .bb44984f-67bd-42bf-9056-017c849911f4 {
        fill: url(#e4837c71-0411-4e0a-a122-48677209d1ef);
      }

      .a52dac5f-01e6-4b07-ac87-e0eb18ff3ad2 {
        fill: #db3d51;
      }

      .f60ad301-b633-4caf-a2c6-341ca1b208ab {
        fill: #468eb3;
      }

      .fbdb74b2-f3cb-47b1-bc94-eea21ebb8632 {
        fill: url(#bfdc9757-f6d7-424f-9dcb-2eae3d489916);
      }

      .ae3ce25e-e0b9-4bd9-a24e-7ff33dc81523 {
        fill: url(#e7946cfc-2005-4874-9cb6-fc944af0ad10);
      }

      .bec255c3-a7a5-4030-ba54-90897bef2f31 {
        fill: #e2a450;
      }

      .a27686e9-2254-4ea1-bb7d-cc4e919b8cac {
        fill: url(#aea1e834-5acc-4da9-a6cc-fc44d7d43bbd);
      }

      .a5b148b3-241c-499f-945c-0ed171b85bbc {
        fill: #f8d5ad;
      }

      .e2aad5f2-9a35-4024-806b-3e48e8a4cb06 {
        fill: #624b3c;
      }

      .a10a3270-0418-4726-9623-c642833264c8 {
        fill: #63c5e0;
      }

      .ec03fed1-ecda-46ce-ae8f-7f8af7dea8a8 {
        fill: #c1c1c1;
      }

      .ef522585-3210-49e4-b8d4-08069314dfe5 {
        fill: #57b2cf;
      }

      .a137c316-071f-4efd-b389-cc17d85bcdaf {
        fill: #73c0c2;
      }

      .a08e6d99-b92d-4dae-b610-0a1a62ac7f9e {
        fill: #faf6f7;
      }

      .ad98be64-a6ec-4c35-a146-8f2ff7b54f89 {
        fill: #eab37d;
      }

      .ba396391-f969-475c-a738-13580fb3e008 {
        fill: #7a4b3a;
      }

      .e6b3c2a4-c7eb-43c0-9bbd-b2262a0dedff {
        fill: #7c4d3c;
      }
    </style>
    <linearGradient id="a60aca00-bb4a-42cb-9409-c2e331954094" x1="382.57" y1="-39.89" x2="405.87" y2="282.8" gradientUnits="userSpaceOnUse">
      <stop offset="0" stop-color="#71c9ef"/>
      <stop offset="1" stop-color="#9bd9f4" stop-opacity="0"/>
    </linearGradient>
    <linearGradient id="e4837c71-0411-4e0a-a122-48677209d1ef" x1="183.02" y1="497.95" x2="192.31" y2="497.95" gradientUnits="userSpaceOnUse">
      <stop offset="0" stop-color="#272438"/>
      <stop offset="1" stop-color="#304260"/>
    </linearGradient>
    <linearGradient id="bfdc9757-f6d7-424f-9dcb-2eae3d489916" x1="113.87" y1="492.95" x2="116.23" y2="492.95" xlink:href="#e4837c71-0411-4e0a-a122-48677209d1ef"/>
    <linearGradient id="e7946cfc-2005-4874-9cb6-fc944af0ad10" x1="293.56" y1="392.64" x2="293.77" y2="392.64" xlink:href="#e4837c71-0411-4e0a-a122-48677209d1ef"/>
    <linearGradient id="aea1e834-5acc-4da9-a6cc-fc44d7d43bbd" x1="284.82" y1="492.95" x2="287.17" y2="492.95" xlink:href="#e4837c71-0411-4e0a-a122-48677209d1ef"/>
  </defs>
  <title>1</title>
  <g>
    <rect class="af3db9e5-653e-4ff7-9299-325b9460ad4f" width="800" height="402.92"/>
    <g class="a047fc96-8721-4559-9f80-cb35198fbb57">
      <path class="b4160f7f-11b4-42be-acb9-8da36de05983" d="M287.1,251.5s27.23-4.5,44.57-11.83,26.54-1.67,57.6,11.83,77.06,11.26,86.4,15.38,22.55,6.78,27.95,4.12S543,257.67,563,244.33s28.28-9.89,41.25-4.66,10.29,32.4,10.29,32.4,22.32,23.19-19.56,30.26-112,21.5-112,21.5L341,293.43l-67.33-21.1Z"/>
      <path class="f70dc79c-71e9-4612-93a5-dd83222b8724" d="M76.33,251.5s56-29.17,69.34-29.83,34,20,54,19.33,34.23-14.67,61.45-16.67S327.67,276.33,365,277s56-34,80.68-33.33,41.33,18.72,73.32,28,38.42,11.27,38.42,11.27V300L549,318.33s-68,25.34-136.67,30.34S99,325.57,99,325.57Z"/>
    </g>
    <g>
      <path class="e309ef9c-d7d2-4a40-9628-b330491cbe57" d="M528.63,303.75S444,301,432.5,297.5s-41.39-7-46.95-7.5-24.63.5-31.34,0S330,283,295,273s-58.5-24.71-72-25.61S191.5,262,157,264.5s-59-17-80-26S19.5,206,0,220V330.5l98.22,68S385,420.67,403,414.5s79.93-49.25,79.93-49.25,53.42-28.08,51.5-34.75S528.63,303.75,528.63,303.75Z"/>
      <path class="ad20dc1d-5446-429a-94e2-281c985e1a63" d="M534.43,330.5c-1.93-6.67-5.8-26.75-5.8-26.75s-16.24-.53-35.45-1.42c0,0-39.18,8.67-93.18,8.66s-52,0-38,4.63,21.5,11.88-16.5,8.21-56.5-27.33-82-29.33-37,13-76.5,13-16.5-5.5-36-7.5-13.5,8-25,8-29.67-20-29.67-20S96,292.5,96,300s4,10.5-16,11S7.5,291.13,7.5,291.13A10.76,10.76,0,0,1,0,294.76V330.5l98.22,68S385,420.67,403,414.5s79.93-49.25,79.93-49.25S536.35,337.17,534.43,330.5Z"/>
      <path class="aac109e6-9534-40d9-9f58-f88e4e254f6b" d="M79,336s5-6,20.5-5.5,17,6,29.5,5.5,18-14,33-15.5,13.5,12.5,22.5,10,7.5-14.28,21-15.64,9.5,1.36,17,0,27-6.38,40-3.87,39,21.07,54.5,25,28.92,7.56,37.21,8.51,9.79-3,17.29-4,4.05-1.5,17.77-1S436,336,436,336l-4,15.79s36.25,7-21.5,13.46-121,17.08-121,17.08l-192-19.84L89,356Z"/>
      <path class="b828b674-9b02-4038-bee4-a0dd5fa6c30f" d="M347.5,384.5,322.33,370s-22-10-31.33-10.51-9,3.16-27,0S243.33,351,225.33,351s-37.66,13-44,13-3-4-13.33-4.51-12.67,3.18-18.67,1S137,349,124,347.67s-15-5.67-19.33-6.34-13.59-1-18.3-4.33-32-21.38-32-21.38-33-9.29-39.66-12.62S4,279.33,5.67,276.67s36.66,9.66,52,14,20,4,22,3-35.34-32-45-44.34-7.34-22,3-19.66,43.33,23,54.66,25.14a67.92,67.92,0,0,0,18.71.6c-12.69-5.62-23.78-12.51-34-16.91C56,229.5,19.5,206,0,220V330.5l98.22,68S385,420.67,403,414.5c11.79-4,42.41-23.9,62.15-37.14Z"/>
      <path class="b48bfcd4-e43e-4df0-980f-4585d14f1f80" d="M106.83,356.5s5.17-11,5.92-12,3.75,6,3.75,6,2.19-12.6,4-13.74,1.74,13.06,4.25,12.25,3.5-8.5,5.75-8,2.95,11.94,4.73,10.22,4.72-19.16,6.82-20.72,5.2,24.25,6.7,26,3-4.42,4.75-4.71,2.57,9,3.55,8.83,3.7-12.37,5.45-12.37,2,12,4,12.37,5-12.37,7-12.37S177,366,179,365.75s5.25-22.25,6.75-23.25,5.64,22.74,6.75,20,3.5-14.56,5.25-14.4,5.75,21.41,5.75,21.41L168.75,390s-37-1.35-45.75-7.67S106.83,356.5,106.83,356.5Z"/>
    </g>
    <g class="eee25282-a1d9-4807-896d-f9528f312928">
      <path class="ff3a60b1-4a56-429b-bbb4-e779027abc63" d="M632.1,142.46C530.54,151,0,202.72,0,202.72v12.39s92-12.89,192-12.39,262-18.5,356-26.5,252-15.5,252-15.5V135.36S733.67,133.89,632.1,142.46Z"/>
      <path class="ff3a60b1-4a56-429b-bbb4-e779027abc63" d="M439,142.46s-189.36,6.06-224,7.41-215,18-215,18v7.3s159.07-14.88,242.53-18.42S439,142.46,439,142.46Z"/>
      <path class="ff3a60b1-4a56-429b-bbb4-e779027abc63" d="M465.15,89.34,41.67,116.87l246.56-10,100.92-10L0,135.36v19.19S307,128,394.33,120.29,800,96.09,800,96.09V56.22Z"/>
    </g>
    <path class="e9703e3d-6407-49df-b48d-20bfb349a36a" d="M309,368.75s16-4,31.5-6.26S368,357,374,354.25s42.5-18.67,54-22.42,41.25-12.35,64.75-16.21,31.59-4.18,31.59-4.18L363,368.75l-37.75,6.67H309Z"/>
    <g>
      <path class="b1771c86-dc72-45ff-aff4-5dc8b588cee3" d="M243.67,382.32S277,371,322,367.5s56-11.41,80.5-23S466,322,486,318s41.43-7,41.43-7S459,382.35,457.68,381.17,346,414,346,414H269.5Z"/>
      <path class="b9bc5ca5-43f2-4cd9-b46d-aa55f42c177d" d="M319.27,389.62c-1.18-.2,6-3.47,9.48-7.29s3.5-7.05,5-5.94,2.75,11.17,5.25,11,4.5-5.08,4.5-5.08,2.75,3.18,4,2.18,4.25-10,5.25-12.75A24.28,24.28,0,0,0,354,366.5s1.25,14.25,3.5,14.25,4.25-4.36,4.25-4.36,1,5.61,4,4.61,5-12.25,5.5-14.5,1.75-7,1.75-7,.75,17.54,3.5,16.9,5.25-6.08,5.25-6.08,1,7.44,2.25,8.94,3,1.15,3.75,3.08,1.52,3.83,1.52,3.83S350.55,395,319.27,389.62Z"/>
    </g>
    <path class="a80451e1-83f0-4f0c-82a1-c8e99f1967a6" d="M48.54,418.12c6.63,1.35,14.39,1.17,19.88.76-3-3.34-9.27-7.83-13.92-9.13-3.51-1-11.85,1.12-18.43,4.16C38.2,415.13,42,416.8,48.54,418.12Z"/>
    <g>
      <g>
        <path class="bfdb6982-d0d0-4e98-a074-219fd79da635" d="M450.18,374.22S489.5,339,515,316.5,572,257,598.5,233s22.75-26.62,65-58.5,78-49.5,99.5-59,37-11,37-11V325L535.5,398.5l-64.5-5Z"/>
        <g>
          <path class="be39a84b-0313-4a90-b06a-d8b1a448834d" d="M691.7,160c23.8-15.5,77.3-47,108.3-52v-3.5s-15.5,1.5-37,11-57.25,27.13-99.5,59c-27.28,20.58-35.38,29-44.84,38.79C641,195.08,675.77,170.37,691.7,160Z"/>
          <path class="be39a84b-0313-4a90-b06a-d8b1a448834d" d="M473.5,359.75C493.5,344.5,546,292.5,563,278s32-35,35.5-45c-26.5,24-58,61-83.5,83.5s-64.82,57.72-64.82,57.72l2.34,2.17C457,372.66,463.81,367.14,473.5,359.75Z"/>
        </g>
      </g>
      <path class="ad1d266e-833f-4f13-abd4-fe803bf87390" d="M645.09,210.12c21.24-12.45,77.82-51.22,77.82-51.22S642.6,222.33,629.14,233,601,266.88,601,266.88s44.67-23.21,71.33-31.21S736,192.17,736,192.17l49.69-18.5s-.11,16.66-15.39,24S727,223.67,718.33,233s-28.83,23.33-28.83,23.33S730.9,241.67,751,233s19.25-10.67,29.32-12.67S800,212.89,800,212.89V108c-31,5-84.5,36.5-108.3,52-15.93,10.37-50.72,35.08-73,53.29-5.18,5.39-10.77,11.21-20.16,19.71a46.26,46.26,0,0,1-3.52,7.33C608.55,232,631,218.37,645.09,210.12Z"/>
      <path class="b08080a6-1459-40e8-93ae-3ecb30d2716e" d="M455.92,373.59S467,362.74,492,356.87,544,332,563.5,325s40.75-6.5,40.75-6.5S586.5,334,576.5,336s-24,10-24,10,27-.54,44-10,38.24-19,42.12-20.5S724,299,741.82,285.17,775.5,255,783.5,251.5a56.76,56.76,0,0,1,16.5-4.11V325s-282,57.15-289,57.32S455.92,373.59,455.92,373.59Z"/>
      <path class="a8a6f48c-712d-4dd4-bc7a-2b60c3be9b21" d="M563,278s12-10.33,12.67,0-12.67,11.67,4,15,41.2-13.44,71.39-19.59S699.6,271,725.3,258.33s27.68-16,42.69-18.66S800,233,800,233V108c-31,5-84.5,36.5-108.3,52-15.93,10.37-50.72,35.08-73,53.29-5.18,5.39-10.77,11.21-20.16,19.71C595,243,580,263.5,563,278Z"/>
    </g>
    <g>
      <g>
        <path class="a1ff12ca-2879-42ff-b3a0-09b9c2af14f7" d="M504.32,365.25c-1.4.19-.65-8.08,1.85-14.08a41,41,0,0,0,2.83-12,24.55,24.55,0,0,1,3.67,7.83c1.33,4.83,1.66,7.17,2.33,7.17s1-7.67,4.67-12.67a50.21,50.21,0,0,0,5.83-11v16.83a32.61,32.61,0,0,1,4.17-12.83c3.83-6.83,2.83-10.67,2.83-10.67s3.25,10,3.29,14.41a30.33,30.33,0,0,0,2.21,9.59s1-7.5,2.07-11.83,2.1-10.33,2.1-10.33.83,18.16,2.16,23,1.34,7,1.92,6.86L552,354s-.86-8,0-11.86,0-14.34,0-14.34l7,24.35A288.33,288.33,0,0,1,504.32,365.25Z"/>
        <path class="e9703e3d-6407-49df-b48d-20bfb349a36a" d="M468.74,370.31l.32-13,1.44-3.67s3.5,9.5,5,9.5.39,2.1,1.5,0,1.83-12.34,1.83-12.34,4.84,11.34,7.5,11.34,1.34,2.66,2.67,0,1.33-13.5,1.33-13.5l6.8,17.77Z"/>
      </g>
      <path class="a1ff12ca-2879-42ff-b3a0-09b9c2af14f7" d="M797.16,325.57s-1.91-2.35-1.16-10.71A24.69,24.69,0,0,0,792.25,300L787,307.25V295c0-6.5-2.25-8.75-2.25-8.75s-.5,10.25-2.25,15a43.41,43.41,0,0,0-2.23,9.25s-3-7.83-3.27-8.17-3,7.17-3,7.17a24.17,24.17,0,0,0,0-9.5,72.26,72.26,0,0,0-2.25-9.5s-.47,11.47-2.5,14.2-9,5.3-9,5.3-4.75-1.5-6.5.25-5.25,10.5-5.25,10.5l3,4.25Z"/>
    </g>
    <g>
      <g>
        <path class="ad0e57b8-dba3-423b-8eca-26693a1969b7" d="M95.24,102.9h70a57.94,57.94,0,0,0,24,5.5c13.33,0,20-6.33,34.66-7s43.34-2,43.34-2L232,91.9a20,20,0,0,0-7.75-5.25c-4.5-1.5-6-1.5-6-1.5s.5-6-5.75-10.25-14-2.25-14-2.25,6.5-12.5-6.75-16.5S176,65.4,176,65.4s.75-15-11.5-15.5-14.75,7.5-14.25,12,2.25,6.5,2.25,6.5-1.75-5.25-14-2.5-1.75,11.5-1.75,11.5-9.75,2.25-12.5,7.75-.75,8.5-.75,8.5-1.5-6-11.25-5.25S106,97.9,106,97.9Z"/>
        <path class="ab37f5f3-16f7-4e2f-84f6-ff6a2a81023e" d="M101.69,99.9h11.55s-1.25-3.25,3-3.5S123,99.9,123,99.9l6.75-1.75,5.75-4S133.24,83.4,141,81.4a10.36,10.36,0,0,1,11.5,4.25s-.5-14,13.25-14,15.5,11.75,15.5,11.75,1.5-5.25,6.25-5.5,6.5,7.88,6.5,7.88,2.75-6.63,11-5.13,10,13,10,13l16.16,7.42,36.09-1.67L232,91.9a20,20,0,0,0-7.75-5.25c-4.5-1.5-6-1.5-6-1.5s.5-6-5.75-10.25-14-2.25-14-2.25,6.5-12.5-6.75-16.5S176,65.4,176,65.4s.75-15-11.5-15.5-14.75,7.5-14.25,12a14.81,14.81,0,0,0,1.6,5.51c-1.23-1.37-4.62-3.47-13.35-1.51-12.25,2.75-1.75,11.5-1.75,11.5s-9.75,2.25-12.5,7.75c-1.85,3.69-1.55,6.25-1.16,7.54-.9-1.66-3.58-4.85-10.84-4.29-9.75.75-6.25,9.5-6.25,9.5Z"/>
      </g>
      <g>
        <path class="ad0e57b8-dba3-423b-8eca-26693a1969b7" d="M592.3,110h60.62a50.19,50.19,0,0,0,20.78,4.76c11.54,0,17.32-5.48,30-6.06L741.24,107l-30.52-6.5A17.33,17.33,0,0,0,704,95.92a20.5,20.5,0,0,0-5.2-1.3s.43-5.2-5-8.88-12.12-1.95-12.12-1.95S687.34,73,675.86,69.5s-13.64,8-13.64,8,.65-13-10-13.42-12.78,6.5-12.34,10.39,2,5.63,2,5.63-1.52-4.54-12.13-2.16-1.51,10-1.51,10-8.45,1.94-10.83,6.71-.65,7.36-.65,7.36-1.3-5.2-9.74-4.55-5.41,8.23-5.41,8.23Z"/>
        <path class="ab37f5f3-16f7-4e2f-84f6-ff6a2a81023e" d="M597.89,107.39h10s-1.08-2.81,2.6-3,5.84,3,5.84,3l5.85-1.52,5-3.46s-1.94-9.31,4.77-11a9,9,0,0,1,10,3.68s-.44-12.12,11.47-12.12S666.77,93.1,666.77,93.1s1.3-4.54,5.41-4.76,5.63,6.82,5.63,6.82,2.38-5.74,9.53-4.44S696,102,696,102l14,6.42L741.24,107l-30.52-6.5A17.33,17.33,0,0,0,704,95.92a20.5,20.5,0,0,0-5.2-1.3s.43-5.2-5-8.88-12.12-1.95-12.12-1.95S687.34,73,675.86,69.5s-13.64,8-13.64,8,.65-13-10-13.42-12.78,6.5-12.34,10.39a12.8,12.8,0,0,0,1.39,4.78c-1.07-1.19-4-3-11.57-1.31-10.61,2.38-1.51,10-1.51,10s-8.45,1.94-10.83,6.71c-1.6,3.19-1.34,5.41-1,6.52-.78-1.44-3.1-4.19-9.39-3.71-8.44.65-5.41,8.23-5.41,8.23Z"/>
      </g>
      <path class="ab37f5f3-16f7-4e2f-84f6-ff6a2a81023e" d="M255.33,140.67s24.67-.5,30.5,0,10-.45,14.84-.23a89.41,89.41,0,0,0,9,.17c1.83-.11,3.5-2.94,7.16-3.28a8.41,8.41,0,0,1,6,1.74s2.34-3.4,5.5-3.4,6,3.83,6,3.83l26,.5,16,2.17s-22.66.66-28.66,1.16-16.5,0-20.34,1.17-.5,2-8.5,2a57.7,57.7,0,0,1-12.16-1l-38-1.83s-18.17-.84-18.34-1.34S255.33,140.67,255.33,140.67Z"/>
    </g>
    <g>
      <g>
        <path class="fd220792-4ed9-4de8-bf6c-a8aa2cf22be0" d="M749,325c-37.33,0-94,2.67-144.67,15.33S516.33,365,487,367.67s-60.67,14.66-114.67,20.66-128.46-6-128.66-6c16.67,7.15,34,15.31,46,22,28.66,16,76,46.67,102.66,54.67S510,493,558,513s157,87,157,87h85V325Z"/>
        <path class="e455be09-4648-437e-8fef-47688b699d5c" d="M287.1,402.92S298,404,336.5,407.5s54-3,66.5,7-4,15,23,21,84.5-7.84,92-5.17S498.5,447.5,502.5,455,524,477.5,553,481s47.5-1.5,51,4.5-30.5,15.5-27,20,3,18.5,3,18.5-160.2-40.39-164-42.11S339,443,339,443Z"/>
        <path class="e9a84690-97d0-46cb-bf47-67a5085b92fa" d="M614.33,535.8c4-4.8,44.34-59.35,47.84-60.41S707,454.33,721,456.33,709.67,477,703,487s.67,28.67,12,31.33,47.33-14.66,57.33-15.33S800,500.33,800,500.33V600H707.17l-74.84-28.33L609,542.33Z"/>
        <path class="be729c01-1b95-4ef0-8243-423be0948d9e" d="M0,330.5V600H715s-109-67-157-87-139-46-165.67-54-74-38.67-102.66-54.67S202,364,194,365s-8.5,4.5-16.5,4.5-11-4.5-17-4.5-19.5,1.5-26-.5-39-15.5-61-21.5-45-9.5-51.5-9S0,330.5,0,330.5Z"/>
        <path class="f9c2d7dd-3f5d-41cd-aae6-1134b2e41377" d="M0,403s7-3.5,24.5,0,26.5,12,53,13,55-3,62,6.5S97,432,90.5,438,95,449.5,75,451s-38-6-48.5-7.5S0,441,0,441Z"/>
        <path class="b4af43b6-7284-48a9-9e76-0a00978cbf01" d="M0,344.5s15.33,2.5,27.33,5.17.34-5.67,10.34-5.17S70,357.33,89,361.67s22.33,10.33,31.33,12.66,48.34,1.34,87,9.34,33,12.66,21.34,11.66-45.67-5-49.67-3,23,14,47.67,17S284.33,427,283.33,430,216.67,414.67,198,413s-43-10.33-44.33-8.67,21.66,12.34,15.33,14.34S99,398,86.33,395s-3.33-5.33-7-11-12.33-5-34-5.67A430.61,430.61,0,0,1,0,374Z"/>
        <path class="bf5e72ff-3161-4129-991b-8ef0cb497160" d="M0,487s57.67-16.67,75.67-15.33-9.34,15.33-12,32,8,26.66,42.66,16.66,32-16.66,81.34-16.66,54.66-16,68-14S295,520,335,538s176,62,176,62H0Z"/>
        <path class="a6a64f4e-6248-4d7e-8d47-14503f959e20" d="M259.5,404c8,7,45,18.16,45.5,26.33S281.21,441,283.36,446s26.64-3,47.14,8S373,465,385,468.5,461,505,511,519s151.16,49.45,151.17,49.46C627.47,548.22,583.87,523.78,558,513c-48-20-139-46-165.67-54s-74-38.67-102.66-54.67c-12-6.7-29.33-14.86-46-22C243.67,382.32,251.5,397,259.5,404Z"/>
        <path class="fef78d9c-38ea-4ccb-8ee3-a8ca4e93ebf5" d="M427,396c2.5-.5,127-33,132-27.5S516,394,520,396s158-48,191.5-52,88.5-8,88.5-8v30S654,410.5,643.5,406.5s49.5-23,53-29.5-102,36-135,40.5-94.7,21.79-103.35,18.89S490,420,487.5,413s-69-4.65-69.5-10.08S427,396,427,396Z"/>
        <g>
          <path class="f3b049c4-43d9-491d-a7b1-7dd273d10c18" d="M720.5,417.25a14.74,14.74,0,0,0-13-2.75c-7.75,2-6,14.5-6,14.5s-6-4.75-9.25,0,8.5,14,18.75,15.5,34.25,0,34.25,0l34.25-14.91L775.75,416s6.75-8,3.75-24-21.75-20.25-38.75-17.75S712.75,395.25,720.5,417.25Z"/>
          <path class="b4cbc67e-05a9-47f9-ac4f-008c3b558af4" d="M779.5,392c-2.63-14-17.37-19-32.42-18.36-4,2.7-7.8,6.27-9,10.61-2.85,10.5,1.12,16.5-2.12,19.75a10.71,10.71,0,0,1-7,3.25s6.5,8.5,1.75,16.5-10.5,4.25-15.75,9.5c-3,3-4.06,7.71-4.68,11.14l.68.11c10.25,1.5,34.25,0,34.25,0l34.25-14.91L775.75,416S782.5,408,779.5,392Z"/>
          <g>
            <path class="f3b049c4-43d9-491d-a7b1-7dd273d10c18" d="M800,412.25s-11.21-5.75-22.11,0S773,427,773,427s-3.75-5-12.75-2.25a14.86,14.86,0,0,0-10.5,10.5s0-1.06-6,1.47a14.49,14.49,0,0,0-7.77,8.45h64Z"/>
            <path class="b4cbc67e-05a9-47f9-ac4f-008c3b558af4" d="M787.11,409.73a55.53,55.53,0,0,0-4.61,8.77c-3.65,8.75,2.54,14-2.23,17.25s-12.27,1.08-17,5.25a14.32,14.32,0,0,0-3.23,4.17h40V412.25A27.85,27.85,0,0,0,787.11,409.73Z"/>
          </g>
        </g>
      </g>
      <path class="a76c55c4-9898-4871-90f5-64788c41d251" d="M715,444.9s13,5.1,21,5.1,6.11-.5,9.32,0-3.3,3.5,10.7,9,44,3.5,44,3.5V445.17Z"/>
    </g>
    <g>
      <g>
        <ellipse class="a76c55c4-9898-4871-90f5-64788c41d251" cx="67.83" cy="422.34" rx="39" ry="7.99"/>
        <g>
          <path class="b4cbc67e-05a9-47f9-ac4f-008c3b558af4" d="M40.75,413.63c-.5.12.13-5.25,2.75-6.63s5,.88,5,.88S49,395,64.13,394.5s17.62,4.64,17.5,6.94a5.92,5.92,0,0,1-1.13,3.44,10.85,10.85,0,0,1,9.88.12,9.08,9.08,0,0,1,5.25,7.5s3.62-.94,5.87,1.84,1.63,4.84,1.63,4.84H60.75Z"/>
          <path class="a2f8d438-68d3-4b57-9348-5ea5a79dd057" d="M101.5,414.34c-2.25-2.78-5.87-1.84-5.87-1.84a9.08,9.08,0,0,0-5.25-7.5,10.85,10.85,0,0,0-9.88-.12,5.92,5.92,0,0,0,1.13-3.44c.1-2-1.76-6.11-12.09-6.85a29.56,29.56,0,0,1,4.79,6.08C76.67,405.17,75,411,75,411s8.83.18,11.83,3.34c1,1,1.25,2.86,1.16,4.84h15.14S103.75,417.13,101.5,414.34Z"/>
        </g>
        <path class="a8e5ae4e-fa95-4154-ae65-440d2c0929f0" d="M27,421.75a14.73,14.73,0,0,0,7.5,4.57c4.5.93,32.75,0,32.75,0s2.93-1.82,2.84-4.57-9.34-10.25-15.59-12S26.75,416,27,421.75Z"/>
      </g>
      <path class="e0daf700-2a0b-4b0a-88b8-fe23c8f9b4c9" d="M67,417.37c0,4-6.82,6.46-15.32,6.46S35,424.33,35,420.38s8.14-11.29,16.63-10.88C59.25,409.88,67,417.37,67,417.37Z"/>
      <ellipse class="e0daf700-2a0b-4b0a-88b8-fe23c8f9b4c9" cx="51.63" cy="413.58" rx="8.74" ry="4.07"/>
    </g>
    <rect class="b203fef5-d1ad-4610-8278-1d6a374d2339" width="800" height="600"/>
    <g>
      <path class="a73aab60-01e4-4da5-95f8-ae9998d3904e" d="M503.62,315.64a.87.87,0,1,1-.86-.86A.86.86,0,0,1,503.62,315.64Z"/>
      <path class="b707d908-3653-4333-bebc-5087c01e3a6e" d="M661.35,371.69c.81-10.67,4.81-56.15,4.82-56.91-12.57-.32-68.39-4.29-77-3.8-.45,10.07-3.54,58.27-4.2,68.47Z"/>
      <g class="e1574a02-bd69-475e-adaf-a5ca56842edb">
        <polygon class="ee038d3e-4bf5-4928-8fb0-bf15e43f74f5" points="625.63 375.17 629.12 312.93 628.15 312.88 624.65 375.17 625.63 375.17"/>
        <polygon class="ee038d3e-4bf5-4928-8fb0-bf15e43f74f5" points="653.03 372.67 656.59 309.2 655.62 309.15 652.05 372.67 653.03 372.67"/>
        <polygon class="ee038d3e-4bf5-4928-8fb0-bf15e43f74f5" points="642.39 373.83 646.08 307.98 645.11 307.92 641.41 373.83 642.39 373.83"/>
        <polygon class="ee038d3e-4bf5-4928-8fb0-bf15e43f74f5" points="601.45 377.83 603 310.28 602.02 310.26 600.48 377.83 601.45 377.83"/>
      </g>
      <path class="babba582-b9e2-4eb1-8a15-6ae753b8f3a2" d="M613.29,357.12c3.83.22,24.24.79,29.29.77,1.52-11.07,2.66-30.85,3.23-36.14-5.65-.17-28.4-.69-32.27-.44C613.32,326.77,613.46,354.12,613.29,357.12Z"/>
      <path class="f7c0d3e3-c1f5-4d10-a653-1829a7e9c036" d="M640,357.88c2,0,2,0,3,0,1.53-11.08,2.59-30.95,3.17-36.25l-3.07-.08C642.79,323.54,640,356.44,640,357.88Z"/>
      <polygon class="fe8ffc7e-782e-463b-aeee-e401b968289d" points="474.65 323.11 532.63 251.13 544.86 251.58 497.94 321.98 474.65 323.11"/>
      <path class="a944126a-5e59-4a78-a7db-eab9244ab972" d="M586.59,379.45c.79-8.6,2.66-48.62,3.57-60.22l-50.7-62c-5,12.63-29.6,44.21-42.29,61.72.94,22,3,44.79,4.19,60.47Z"/>
      <path class="babba582-b9e2-4eb1-8a15-6ae753b8f3a2" d="M562.42,379.45c.45-9.92,2-55.31,2.43-66.32-3.66-.05-36.44.78-44.82,1.2.45,21.59,1.46,49.57,2,65.12Z"/>
      <path class="e9703e3d-6407-49df-b48d-20bfb349a36a" d="M564.85,313.13c-8.25,0-18.63.37-22.41.47.36,10,1.18,23.09,1.59,29.79,1.49.16,11.52.17,19.73.09C564.22,330.72,564.66,318.28,564.85,313.13Z"/>
      <path class="b707d908-3653-4333-bebc-5087c01e3a6e" d="M524.81,379.45c-.11-10.22-1.6-54.3-1.18-65.29-1.36.07-4,.16-4.22.17.45,21.59,1.47,49.57,2,65.12Z"/>
      <path class="a9787c89-d324-446d-9698-550710acaafe" d="M474.65,323.11c28.9-29,58.17-72.08,58.17-72.08l.09-6.57s-40.9,55.26-61.12,74.25C471.57,320,473.34,323,474.65,323.11Z"/>
      <path class="fb2bbffd-66da-4f4f-95de-3fa9c04eceab" d="M532.82,244.46c3.8,13.83,55.12,72.8,66.48,75.56,0,0,68,3.31,81.54,1.54Z"/>
      <path class="b5944685-a90b-4eea-a219-f23919f790e6" d="M680.84,321.56c-5.9-5.43-59.75-71.91-59.75-71.91l-88.18-5.19c3.42,14.54,55,72.8,66.39,75.56C599.3,320,667.33,323.33,680.84,321.56Z"/>
      <path class="a6650c0b-7185-48ca-ae86-0c61c8d0e0e2" d="M680.84,321.56c0,1.24-2.37,3.8-2.37,3.8-5.45,0-56.61-1.7-83.94-2.25-.49-1.45,3.86-5,3.86-5S663.5,321.56,680.84,321.56Z"/>
      <g class="e1574a02-bd69-475e-adaf-a5ca56842edb">
        <polygon class="ee038d3e-4bf5-4928-8fb0-bf15e43f74f5" points="548.72 313.37 547.18 265.25 548.15 265.22 549.69 313.34 548.72 313.37"/>
        <polygon class="ee038d3e-4bf5-4928-8fb0-bf15e43f74f5" points="564.92 313.16 563.95 313.1 564.96 291.98 565.93 292.03 564.92 313.16"/>
        <polygon class="ee038d3e-4bf5-4928-8fb0-bf15e43f74f5" points="574.4 379.45 578.47 306.82 577.5 306.77 573.42 379.45 574.4 379.45"/>
        <polygon class="ee038d3e-4bf5-4928-8fb0-bf15e43f74f5" points="511.08 379.45 507.54 304.92 506.9 305.79 510.11 379.45 511.08 379.45"/>
        <polygon class="ee038d3e-4bf5-4928-8fb0-bf15e43f74f5" points="534.05 313.82 532.57 269.59 533.07 268.8 535.02 313.79 534.05 313.82"/>
        <polygon class="ee038d3e-4bf5-4928-8fb0-bf15e43f74f5" points="519.41 314.33 518.81 289.6 519.51 288.71 519.98 314.31 519.41 314.33"/>
      </g>
      <path class="a9787c89-d324-446d-9698-550710acaafe" d="M594.53,323.11C570.58,308,532.82,251,532.82,251v-6.5s45.91,59.16,66.85,74.17C598.62,319.88,597.1,322.13,594.53,323.11Z"/>
      <g class="e1574a02-bd69-475e-adaf-a5ca56842edb">
        <circle class="ee038d3e-4bf5-4928-8fb0-bf15e43f74f5" cx="510.62" cy="305.36" r="0.87"/>
        <path class="ee038d3e-4bf5-4928-8fb0-bf15e43f74f5" d="M503.62,315.64a.87.87,0,1,1-.86-.86A.86.86,0,0,1,503.62,315.64Z"/>
        <path class="ee038d3e-4bf5-4928-8fb0-bf15e43f74f5" d="M527.29,282.92a.87.87,0,0,1-1.73,0,.87.87,0,1,1,1.73,0Z"/>
        <path class="ee038d3e-4bf5-4928-8fb0-bf15e43f74f5" d="M536.24,268.54a.87.87,0,1,1-.86-.86A.87.87,0,0,1,536.24,268.54Z"/>
        <path class="ee038d3e-4bf5-4928-8fb0-bf15e43f74f5" d="M522.82,310.16a.87.87,0,1,1-.86-.87A.86.86,0,0,1,522.82,310.16Z"/>
        <circle class="ee038d3e-4bf5-4928-8fb0-bf15e43f74f5" cx="537.75" cy="309.6" r="0.87"/>
        <path class="ee038d3e-4bf5-4928-8fb0-bf15e43f74f5" d="M552.51,309.33a.87.87,0,0,1-1.73,0,.87.87,0,1,1,1.73,0Z"/>
        <path class="ee038d3e-4bf5-4928-8fb0-bf15e43f74f5" d="M562.61,309.33a.87.87,0,0,1-1.73,0,.87.87,0,1,1,1.73,0Z"/>
        <path class="ee038d3e-4bf5-4928-8fb0-bf15e43f74f5" d="M504,379.45a.81.81,0,0,0,.06-.31.87.87,0,1,0-1.73,0,.81.81,0,0,0,.06.31Z"/>
        <path class="ee038d3e-4bf5-4928-8fb0-bf15e43f74f5" d="M514.32,379.45a.84.84,0,0,0,.18-.52.87.87,0,1,0-1.73,0,.84.84,0,0,0,.18.52Z"/>
        <path class="ee038d3e-4bf5-4928-8fb0-bf15e43f74f5" d="M577.62,377.53a.87.87,0,1,1-1.73,0,.87.87,0,0,1,1.73,0Z"/>
      </g>
      <g class="b76c96a4-51a0-4ad8-84da-bdf37a7ffc2d">
        <path class="ff3a60b1-4a56-429b-bbb4-e779027abc63" d="M656.07,293.36l-83.94-1.25a.73.73,0,0,1-.72-.74c0-.41.36-.64.74-.72l83.93,1.25a.73.73,0,0,1,0,1.46Z"/>
        <path class="ff3a60b1-4a56-429b-bbb4-e779027abc63" d="M668.75,308.11l-82.5-1.17a.73.73,0,0,1,0-1.46l82.51,1.17a.73.73,0,0,1,0,1.46Z"/>
        <path class="ff3a60b1-4a56-429b-bbb4-e779027abc63" d="M632.7,264.57l-86.5-2.69a.73.73,0,0,1-.7-.75.7.7,0,0,1,.75-.7l86.48,2.69a.73.73,0,0,1,0,1.45Z"/>
        <path class="ff3a60b1-4a56-429b-bbb4-e779027abc63" d="M645,279.87l-85.56-2.16a.74.74,0,0,1-.71-.75.76.76,0,0,1,.75-.71L645,278.41a.73.73,0,0,1,0,1.46Z"/>
      </g>
      <path class="bfdb6982-d0d0-4e98-a074-219fd79da635" d="M542.63,318.33a3.28,3.28,0,0,0,2.84-1.71A2.34,2.34,0,0,0,548,319a3.76,3.76,0,0,0,2.83-1.92h.25a3.44,3.44,0,0,0,.59,1.71l0,0a1.2,1.2,0,0,0,0,.5,2.5,2.5,0,0,0,2.1,2.17A8.07,8.07,0,0,0,548.3,324c-.2.2-.37.58-.12.73a.71.71,0,0,0,.22.05l5.47.45-1.28.73a4.39,4.39,0,0,0,5.17.73c-.55.26-4.16,2.22-4.37,4.46A10.33,10.33,0,0,0,560.6,326c-.22.63.5,1.27,1.17,1.23a3.06,3.06,0,0,0,1.72-.95,3,3,0,0,0-.6,4.19,12.53,12.53,0,0,0,1.39-1.52c.25-6.89.49-12.7.61-15.81-8.25,0-18.67.4-22.45.5C542.5,315.12,542.56,316.71,542.63,318.33Z"/>
    </g>
    <g>
      <g>
        <g>
          <path class="a63fd210-9356-4f72-9f66-d86730727c71" d="M721.38,39.88s.87,8.12-2.5,12.37-5.75,9-5.63,13.63,1.75,11.75,1.63,19.37-4.88,26.13-8.88,34-5.62,6.38-3.75,11.25,5.25,4.08,5.13,7.42-1.63,2.58-1.63,4.71-.37,16.5-1.5,18.62-6.75,3.13-7.5,9.75,2.5,10.88,2.63,17.13-3.63,3.87-4,7.75A53.19,53.19,0,0,1,692,210.17c-2.33,6.33-5.33,13.5-4,15.33s4.17-.67,4.17,2.17-5.84,10.66-5.67,12.33,2,2.29,2.83,7.39-4.66,10.11-4.66,10.11l-4.34,30.63,11.17,49.2s.33,2.67,11.17,3.67,36.33.83,38.33-1.17-4.33-6.16-2-9.33,7.33,3.17,11.67,2,2.5-9.67,4.5-12.33,11.5-2.34,12.33-9.5-7.33-9.5-9-12.67,10.5-7.83,11.67-16-7.17-4.17-10.5-10.67,6.83-9.16,6.33-17.66-3.83-7.67-8-10.84-8.5-8-6.83-14.33-3.84-5.5-3.84-12.83,6.5-10.5,5-17-4.16-1.84-7-6.5-2.5-6.67-.5-12.67,2-12.17-1.66-16-4.67-10.33-2.5-12,5.66-9.33,1.66-14.33S737,129,737,124.67s3.67-10,2.17-17.5-8.17-12.5-8-16.67,3-1.17,2.66-7.83S730,69.83,727.33,64s-2.06-14.17-2-18.33S721.38,39.88,721.38,39.88Z"/>
          <path class="b37c6620-cb53-4701-be8f-e074b4d0b7b6" d="M770.17,282c1.16-8.17-7.17-4.17-10.5-10.67s6.83-9.16,6.33-17.66-3.83-7.67-8-10.84-8.5-8-6.83-14.33-3.84-5.5-3.84-12.83,6.5-10.5,5-17-4.16-1.84-7-6.5-2.5-6.67-.5-12.67,2-12.17-1.66-16-4.67-10.33-2.5-12,5.66-9.33,1.66-14.33S737,129,737,124.67s3.67-10,2.17-17.5-8.17-12.5-8-16.67,3-1.17,2.66-7.83S730,69.83,727.33,64a19.14,19.14,0,0,1-1.14-3.35h0s2.41,15.1-.89,18.6-6.55,6.25-4,11-1.5,16.75,1.25,23.25-3,6.25-2.14,11,5.2,11.08,3.3,13.42-8.91,2.83-4.41,10.58,4.75,13.75,1.5,17.25-7,2-5.75,6.25,4.75,2.75,3,6.75-4.49,3.75-3.25,7.5S727,197.5,722.5,209s-6.25,13-4,19.75,6.5,5.75,4.25,11.75-6.75,7.88-3,14.31,5.75,17.44,2,19.44-4-2-6.75,1,.38,9.25-.56,14-13.19,8.25-13.94,8.25a129.88,129.88,0,0,0-16.69,6l7.69,33.85s.33,2.67,11.17,3.67,36.33.83,38.33-1.17-4.33-6.16-2-9.33,7.33,3.17,11.67,2,2.5-9.67,4.5-12.33,11.5-2.34,12.33-9.5-7.33-9.5-9-12.67S769,290.17,770.17,282Z"/>
          <path class="aff0e88e-ba57-4661-aab1-4ab9bc51154b" d="M759.67,271.33c-3.34-6.5,6.83-9.16,6.33-17.66s-3.83-7.67-8-10.84-8.5-8-6.83-14.33-3.84-5.5-3.84-12.83,6.5-10.5,5-17-4.16-1.84-7-6.5c0,0,3.67,11.16,0,17.16s-5.33,10.34-3.66,13,5.33,12,1.66,15.67-6.33,6.79-5,9.39,4.67,4.39,4,7.67S735,260.33,738,266s9.28,11,7.32,15.67-5.63,2.66-5.63,6.33,3.33,7.33,1.33,9.33-12.24,3-14,6.34,2.22,8.33-1.75,11-10.3,2-13,7.66,4.67,8.34-6.33,8.17-14.3,0-14.3,0l-1.86-.47,1.66,7.3s.33,2.67,11.17,3.67,36.33.83,38.33-1.17-4.33-6.16-2-9.33,7.33,3.17,11.67,2,2.5-9.67,4.5-12.33,11.5-2.34,12.33-9.5-7.33-9.5-9-12.67,10.5-7.83,11.67-16S763,277.83,759.67,271.33Z"/>
        </g>
        <g>
          <rect class="f5b87c0f-20cc-452e-9db5-93765cfeca41" x="712" y="338.33" width="7.67" height="42.83" rx="1.39"/>
          <path class="a20c66fd-2af7-4ca1-88b6-24e7358be67e" d="M718.27,338.33H717v42.84h1.27a1.4,1.4,0,0,0,1.4-1.4v-40A1.4,1.4,0,0,0,718.27,338.33Z"/>
        </g>
      </g>
      <g>
        <path class="b7336bb9-2006-4503-ad54-fec3a3d65b3b" d="M660.67,138.5s-.67,5.67-2.84,8.33-5.5,6.34-5.5,9,1.84,10.67,1.84,15-4,15.5-7.5,20.17-6.84,8-4.67,11.5,4.33,4.5,4.33,4.5a25.89,25.89,0,0,0-2.5,11.67c.17,6.66-2,5.66-5.33,11.33s1.33,10.17.83,13.67-5.5,7.46-5.83,11.14.83,3-3.33,8.52-3.84,7.84-1.17,9.17,4.17,3.17,1.67,5.33-4,1.5-3.66,5.67,1.16,1.67,1.82,6.33-2.66,13.84-6.33,15.17-9.67-.83-7.5,3.67,8.33,5.83,7.83,6.83-5.16,3.33-4,7.67,5.84,5.33,4.34,6.66-8.76,2.17-8.63,6.17,4.63,2.33,5.13,5.67a7.65,7.65,0,0,1-1.17,5.5h11.17c4,0,7.33-.34,6,1.5s-7-.84-6.5,3.33,13.11,1.83,21,3.33,26.13,2.86,28.16-.83-3.5-5.83,0-7.83,12.06,2.64,15,.9-.81-3.57,0-5.24,1.14-4.33,7.39-6.33-1.75-5.75-3.25-11,4-7.25,8.25-10,2-4.75-6-9.75,1.75-3,4.5-10.75-3.08-9.33-5.92-10.17-3-3-5-4.5-3.5-.16-3.66-3.83,1.83-2.83-.84-7.33a10.69,10.69,0,0,1,.67-12.34c2.5-3.16,4.33-4.83,3.83-6.33s-4.16,1-6.33-.33-6.67-8.34-4.17-11.67,3.34-4.5,1.5-9.33-6.16-5.67-5.66-9.17,3.5-1.83,5.5-4.17-2.5-8.33-6.5-13.16.5-5,1.66-11.34-5-9.5-7.66-13-1.84-2.66,1-8.5-6.5-14.33-7.84-16.83.84-7-.66-11.67S660.67,138.5,660.67,138.5Z"/>
        <g>
          <rect class="f5b87c0f-20cc-452e-9db5-93765cfeca41" x="655.83" y="349.83" width="7.67" height="39.83" rx="1.56"/>
          <path class="a20c66fd-2af7-4ca1-88b6-24e7358be67e" d="M661.94,349.83h-1.11v39.84h1.11a1.56,1.56,0,0,0,1.56-1.57V351.4A1.56,1.56,0,0,0,661.94,349.83Z"/>
        </g>
        <path class="a1a37020-709d-4748-9e9e-faa209e47479" d="M699.75,305.25c-8-5,1.75-3,4.5-10.75s-3.08-9.33-5.92-10.17-3-3-5-4.5-3.5-.16-3.66-3.83,1.83-2.83-.84-7.33a10.69,10.69,0,0,1,.67-12.34c2.5-3.16,4.33-4.83,3.83-6.33s-4.16,1-6.33-.33-6.67-8.34-4.17-11.67,3.34-4.5,1.5-9.33-6.16-5.67-5.66-9.17,3.5-1.83,5.5-4.17-2.5-8.33-6.5-13.16.5-5,1.66-11.34-5-9.5-7.66-13-1.84-2.66,1-8.5c2.59-5.35-5-12.93-7.35-16.08-.45,3.32-1.18,8.39-1.81,11.25-1,4.5-1.51,1.75-2.31,5s1.55,20.25,0,25.25-1,1.5-2,3S662.5,207,662.5,207s-.75,1.25-2.75,7.5,2.5,4.75,2.5,8.25-2,3-3,5.25-.25,3-.25,6.25-.5,1.25-1.75,5.75,6,11.75,6.25,17.75-3.5,3.75-5.75,11,4.42,12,4.42,12a55.66,55.66,0,0,1-2.5,9.75c-2.09,6.25,3.08,6.25,1.16,11.83s-1.58,1.42-5,5.17.67,8-1.33,11.75-5.75,2.25-12,4.25-8,12.75-16.4,12-11.56.46-11.56.46c.13,4,4.63,2.33,5.13,5.67a7.65,7.65,0,0,1-1.17,5.5h11.17c4,0,7.33-.34,6,1.5s-7-.84-6.5,3.33,13.11,1.83,21,3.33,26.13,2.86,28.16-.83-3.5-5.83,0-7.83,12.06,2.64,15,.9-.81-3.57,0-5.24,1.14-4.33,7.39-6.33-1.75-5.75-3.25-11,4-7.25,8.25-10S707.75,310.25,699.75,305.25Z"/>
        <path class="e005b397-8a00-4b1f-8d1f-c7e2e4bdcddc" d="M699.75,305.25c-8-5,1.75-3,4.5-10.75s-3.08-9.33-5.92-10.17-3-3-5-4.5-3.5-.16-3.66-3.83,1.83-2.83-.84-7.33a10.69,10.69,0,0,1,.67-12.34c2.5-3.16,4.33-4.83,3.83-6.33s-4.16,1-6.33-.33a8.35,8.35,0,0,1-1.88-1.87c-.45,2-1,4-1.51,5.7-1.74,5.41-1.86,9.75-2.36,13.75s2.75,6.5,2.32,11-3.82,3.25-4.82,6,1,1.75,3.25,6.75-1.25,5.25-2.25,9,4.5,3,3.75,9.75-2.75,2-4,6-.25,7-5.75,8-5.75,3.5-7.25,8.5-5.5,3.75-11.75,5-2.5,2.5-6.75,5.75-13.77,4.19-13.77,4.19c1.47.11,2.18.45,1.44,1.48-1.34,1.83-7-.84-6.5,3.33s13.11,1.83,21,3.33,26.13,2.86,28.16-.83-3.5-5.83,0-7.83,12.06,2.64,15,.9-.81-3.57,0-5.24,1.14-4.33,7.39-6.33-1.75-5.75-3.25-11,4-7.25,8.25-10S707.75,310.25,699.75,305.25Z"/>
      </g>
    </g>
    <ellipse class="e917fbfe-c1e1-4ef5-a9c7-b597f83bc0cb" cx="351.43" cy="501.9" rx="35" ry="4.12"/>
    <g>
      <g>
        <g>
          <g>
            <rect class="b707d908-3653-4333-bebc-5087c01e3a6e" x="346.45" y="315.85" width="10.95" height="186.78"/>
            <rect class="a8e0806b-366f-4190-befd-b898445ff7b2" x="346.45" y="407.65" width="10.95" height="4.9"/>
            <path class="a944126a-5e59-4a78-a7db-eab9244ab972" d="M409.54,380.28l11.63-1.94V347.69c-3.1-.36-7.72-.87-10.36-.95-1.32.26-2.15.36-2,.17s.88-.21,2-.17c2.77-.55,7.66-1.79,10.36-2.49V322.78H287.25v26.88l7.53,1.07-7.53,2v31.85l7.53.79-7.53.8v22H421.17V382.33Z"/>
            <rect class="a7cb47c9-ea0b-4e35-b6ec-2d929da8ed3a" x="287.25" y="404.47" width="133.92" height="3.68"/>
          </g>
          <g>
            <g>
              <g>
                <polygon class="ff3a60b1-4a56-429b-bbb4-e779027abc63" points="353.79 327.52 297.91 327.59 298.01 401.87 353.89 401.8 409.76 401.72 409.67 327.44 353.79 327.52"/>
                <path class="f4fc20c5-ffdf-4d0a-b461-a82f49b0d6e2" d="M360.93,395.74c-1.93-1.56-4-1.37-6-2.73-.36-.25-.71-.48-1.06-.7v-.05c-.94-.49-1.31-3.16-2.24-3.53a21.12,21.12,0,0,0-13.25-.92c-1.75.5-3.18,2.57-4.71,3.52a17.28,17.28,0,0,1-7,2.61c-2.68.39-4.74.85-6.25,2.84l33.49,0h8.38C361.81,396.41,361.37,396.09,360.93,395.74Z"/>
                <path class="ad1bccf9-4bfe-4699-abea-58902777aa88" d="M404.63,337.58v-5.3H398a5.83,5.83,0,0,1-2.09,3.94c-.64.47-2.34,1.3-2.54,2.18s-.07,2.11-.33,3.14c-.65,2.61-2.33,3.61-4.59,4.82-2.66,1.44-5.21,3.41-8.14,4.29a20.43,20.43,0,0,1-9.62.82c-3.85-.81-7.27-.48-11.12-.62a19,19,0,0,1-5.76-1.31l0,18a9.75,9.75,0,0,1-1.82-.18,8.14,8.14,0,0,0-5.23.7c-1.68.78-3.76,2.17-5.7,2-2.3-.13-3.75-1.71-4.68-3.78a7.36,7.36,0,0,1-5.81-3.92c-.68-1.59-1-3.27-1.85-4.8-.52-.93-1.36-2.09-1.36-3.2,0-4.06,3.58-4.66,6.5-6.35a12.88,12.88,0,0,1-.43-2.14,8,8,0,0,1,.2-3.43c.33-.95,1.26-2.21,1.18-3.22-.18-2.33-3.72-4.93-3.62-6.93l-28.25,0,0,27a8,8,0,0,1,5.36,1.44c2.59,1.68,2.65,5.25,7.34,4.17a7.36,7.36,0,0,1,3.38-.38c1.32.37,1.94.41,2.77,1.49,1.92,2.46,3.56.78,5.69,1.85a5.24,5.24,0,0,1,3.39,4.89c.49,5.86-6.3,3.36-9.36,3.11-3.35-.27-6.41,3.37-10,3.61-2.92.2-5.66,1.3-8.5,1.7v7.47a26,26,0,0,1,4.71-2.11c8.17-2.77,17.39,0,25-4.2a21.29,21.29,0,0,1,9.52-2.79c3.53-.21,5.39-2.26,7.85-4.4,1.39-1.21,2.67-1.83,3.73-1.64v-1.22a5.34,5.34,0,0,1,5,2.12,10.34,10.34,0,0,1,1.53,2.68,6.2,6.2,0,0,0,3.69,4.18,11.45,11.45,0,0,1,6,5.62,51.86,51.86,0,0,0,3.25,4.76,7.25,7.25,0,0,1,1.53,3.06,4.84,4.84,0,0,1-.1,1.86h7.87c.5-3.8.56-7.73,3.85-10.27,1-.77,2.06-1.48,3.06-2.25,1.75-1.35,1.8-2.64,2.81-4.34,1.23-2,2.66-2.49,4.9-2.91,7.44-1.42-.64-6.84,1.25-10.67.89-1.79,3.94-1.81,6.11-1.35v-4.39c-3.3.38-8.61-2.8-10.82-3.12-6.27-.92-2.95-6.51.61-8.67,2.51-1.53,5.35-2.65,5.19-6.15-.07-1.34-.17-2.6.66-3.72S403,337.39,404.63,337.58Z"/>
                <path class="f4fc20c5-ffdf-4d0a-b461-a82f49b0d6e2" d="M404.66,364.91c-2.17-.46-5.22-.44-6.11,1.35-1.89,3.83,6.19,9.25-1.25,10.67-2.24.42-3.67.86-4.9,2.91-1,1.7-1.06,3-2.81,4.34-1,.77-2.06,1.48-3.06,2.25-3.29,2.54-3.35,6.47-3.85,10.27l22,0Z"/>
                <path class="f4fc20c5-ffdf-4d0a-b461-a82f49b0d6e2" d="M331.22,332.38c-.1,2,3.44,4.6,3.62,6.93.08,1-.85,2.27-1.18,3.22a8,8,0,0,0-.2,3.43,12.88,12.88,0,0,0,.43,2.14,7.4,7.4,0,0,0,2.51-2.19c1.51-2.2,5.91-.07,7.58,1.81a7.93,7.93,0,0,1,1.85,8,5.93,5.93,0,0,1-1,1.56c-.62.93.36,2.29.83,3.09a3,3,0,0,1-.34,2.91c-1.31,2.45-5.47,2.8-7.85,3.11a4.66,4.66,0,0,1-1.06,0c.93,2.07,2.38,3.65,4.68,3.78,1.94.12,4-1.27,5.7-2a8.14,8.14,0,0,1,5.23-.7c.3.05.67.11,1.05.15,3.5,1.51,7.32-.31,10-2.83,1.9-1.78,3.08-4.31,4.49-6.46,2.66-4.05,6.63-2.89,10.76-3.44a24.56,24.56,0,0,0,11.85-5.09c4.3-3.45,6.72-8.29,8.35-13.49a9.82,9.82,0,0,0,.53-4Z"/>
                <path class="ff22c195-0fea-441c-8c89-22ea4347a44e" d="M400.3,338.86c-.83,1.12-.73,2.38-.66,3.72.16,3.5-2.68,4.62-5.19,6.15-3.56,2.16-6.88,7.75-.61,8.67,2.21.32,7.52,3.5,10.82,3.12l0-22.94C403,337.39,401.19,337.65,400.3,338.86Z"/>
                <path class="ff22c195-0fea-441c-8c89-22ea4347a44e" d="M315.6,343.88c-1.38,1-2.35,3.06-4.35,7.48-1,2.22-.45,5.48,3.67,4.35,2.69-.73,3.75,4.37,6.13,2.57.89-.68,1.07-2,1.23-3,.35-2.35.92-3.92,2.88-5.16,3.24-2.05,2.41-4,3.24-6.22C329.54,340.78,325.86,336.79,315.6,343.88Z"/>
                <g>
                  <path class="f706eec9-2357-48ce-8461-a2e49def586b" d="M313.76,375.74a34.31,34.31,0,0,0,3-2,6.89,6.89,0,0,1,4.93-1.23c.9.17,1.76.4,2.65.61,4.08,1,2.95-.73,2.12-1.09-1.64-1.16-3.63-1.27-5.28-2.4-1.2-.82-2.44-1.92-4-1.94-1.18,0-2.35.08-3.52.13a6.24,6.24,0,0,1-4.24-1.31c-1.93-1.65-3.61-4.42-6.46-3.63L303,378c1.81-.35,3.63-.6,5.46-.91A19,19,0,0,0,313.76,375.74Z"/>
                  <path class="f706eec9-2357-48ce-8461-a2e49def586b" d="M330.93,372.9a5.24,5.24,0,0,0-3.39-4.89c-2.13-1.07-3.77.61-5.69-1.85-.83-1.08-1.45-1.12-2.77-1.49a7.36,7.36,0,0,0-3.38.38c-4.69,1.08-4.75-2.49-7.34-4.17a8,8,0,0,0-5.36-1.44v2.42c1.92-.49,3.35.24,4.82,1.73,1.26,1.28,2.69,3,4.6,3.15,1.39.14,2.75-.08,4.13-.06,3.13,0,5,2.44,7.87,3.2a6.53,6.53,0,0,1,3.88,2.53c.42.71.55,1.83-.51,2.06-3.06.69-6.21-2.08-9.21-.57-1.34.67-2.37,1.76-3.69,2.43a16.19,16.19,0,0,1-4.35,1.42c-2.5.48-5,.78-7.52,1.27v2.3c2.84-.4,5.58-1.5,8.5-1.7,3.63-.24,6.69-3.88,10-3.61C324.63,376.26,331.42,378.76,330.93,372.9Z"/>
                  <path class="a772c623-7358-4725-ae54-26f84ccd295d" d="M314.9,376.33c1.32-.67,2.35-1.76,3.69-2.43,3-1.51,6.15,1.26,9.21.57,1.06-.23.93-1.35.51-2.06a6.53,6.53,0,0,0-3.88-2.53c-2.9-.76-4.74-3.16-7.87-3.2-1.38,0-2.74.2-4.13.06-1.91-.19-3.34-1.87-4.6-3.15-1.47-1.49-2.9-2.22-4.82-1.73v1c2.85-.79,4.53,2,6.46,3.63a6.24,6.24,0,0,0,4.24,1.31c1,0,2.18-.14,3.52-.13,1.53,0,2.77,1.12,4,1.94,1.65,1.13,3.64,1.24,5.28,2.4.83.36,2,2.05-2.12,1.09-.89-.21-1.75-.44-2.65-.61a6.89,6.89,0,0,0-4.93,1.23,34.31,34.31,0,0,1-3,2,19,19,0,0,1-5.27,1.31c-1.83.31-3.65.56-5.46.91V379c2.49-.49,5-.79,7.52-1.27A16.19,16.19,0,0,0,314.9,376.33Z"/>
                </g>
                <path class="f706eec9-2357-48ce-8461-a2e49def586b" d="M345.83,355.68a7.93,7.93,0,0,0-1.85-8c-1.67-1.88-6.07-4-7.58-1.81-2.66,3.87-9,3.14-9,8.54,0,1.11.84,2.27,1.36,3.2.84,1.54,1.17,3.21,1.85,4.8a7.22,7.22,0,0,0,6.87,3.9c2.38-.31,6.54-.66,7.85-3.11a3,3,0,0,0,.34-2.91c-.47-.8-1.45-2.16-.83-3.09A5.93,5.93,0,0,0,345.83,355.68Z"/>
                <path class="a772c623-7358-4725-ae54-26f84ccd295d" d="M341.32,349c-1.2-1.35-2.69-1-4.2-.33a41.37,41.37,0,0,0-6.36,3.06c-1.57,1.05-1,2.92-.47,4.35.84,2.51,1.47,5.06,3.47,6.94,1.69,1.59,8.37,2.45,8.23-1.31a3.55,3.55,0,0,0-.57-2c-1.5-2.1,0-3.42.79-5.3A5,5,0,0,0,341.32,349Zm-2.19,9.54c.32,1.53,2.22,1,1.73,3.41s-4.67,1.31-5.85.67c-1.7-.91-2.47-3.11-3.05-4.81-.51-1.47-1.89-4-.5-5.28a11.18,11.18,0,0,1,3.33-1.46c1.32-.51,3.45-2.81,5.22-1.25C344.14,353.47,338.37,355,339.13,358.56Z"/>
                <rect class="fe30e6e5-e355-47e0-b50b-eef53b027f96" x="388.84" y="392.44" width="12.3" height="1.87" transform="translate(-0.53 0.53) rotate(-0.08)"/>
                <path class="ff22c195-0fea-441c-8c89-22ea4347a44e" d="M374.91,394.85a7.25,7.25,0,0,0-1.53-3.06,51.86,51.86,0,0,1-3.25-4.76,11.45,11.45,0,0,0-6-5.62,6.2,6.2,0,0,1-3.69-4.18,10.34,10.34,0,0,0-1.53-2.68,5.34,5.34,0,0,0-5-2.12,9,9,0,0,0-4.53,2.32c-2.45,2.13-4,4.38-7.55,4.59s-5.92,1.43-9,3.14c-7.61,4.21-16.83,1.43-25,4.2a26,26,0,0,0-4.71,2.11v8l17.34,0c1.51-2,3.57-2.45,6.25-2.84a17.28,17.28,0,0,0,7-2.61,20.31,20.31,0,0,1,4.89-2.54c3.62-1,9.06-.48,15.31,3.52.35.22.7.45,1.06.7,2,1.36,4.07,1.17,6,2.73.44.35.88.67,1.33,1l12.55,0A4.84,4.84,0,0,0,374.91,394.85Z"/>
                <path class="f706eec9-2357-48ce-8461-a2e49def586b" d="M392.09,368.22c-.12-1.68-.12-4.09-1.17-5.48-1.35-1.79-7.23-2.51-7.81-2.55a5.81,5.81,0,0,0-3.81,1.48c-2.47,1.85-3.67,3.55-7.12,3.36a6.12,6.12,0,0,0-4.9,1.57c-2.85,2.6-.67,6.28,1,8.76,1.94,2.89,1.34,8,4.83,9.74,2.38,1.21,6.08,1.53,7.81-1s1.29-5.94,4.75-7.47c1.72-.77,3.95-.95,5.23-2.5C392.36,372.37,392.25,370.41,392.09,368.22Z"/>
                <g>
                  <path class="f706eec9-2357-48ce-8461-a2e49def586b" d="M346.52,336c.72.39,1.5.73,2.18,1.18a9.4,9.4,0,0,1,3.37,3.6c2,3.78,4.33,5.21,8.55,3.8a13.84,13.84,0,0,1,6.7-.92c4.3.68,10.6,3.49,14.1-.62,1.58-1.85,2.19-4.17,4-5.82,1.65-1.48,3.8-2.87,4.7-4.89l-44.84.06C344.86,333.83,344.92,335.11,346.52,336Z"/>
                  <path class="f706eec9-2357-48ce-8461-a2e49def586b" d="M391.59,332.3a7.31,7.31,0,0,1-2.2,3.2c-1.47,1.33-3.43,2.55-4.5,4.27a27.55,27.55,0,0,1-2.12,3.65c-4.33,5.08-10,2-15.48,1.52-2.69-.25-4.73.51-7.26,1.17a7.75,7.75,0,0,1-3.76.31c-2.5-.59-3.91-2.2-5-4.45a9.8,9.8,0,0,0-4.76-4.7A8.16,8.16,0,0,1,344,335.4c-.88-1-.47-2.09.15-3h-4.8c-.31.56-1,3.89,2.82,6.59.67.47,1.29,1.11,1.94,1.58a10,10,0,0,1,3.58,4.79c2.85,6.94,9.9,5.46,11.89,5.53,3.85.14,7.27-.19,11.12.62a20.43,20.43,0,0,0,9.62-.82c2.93-.88,5.48-2.85,8.14-4.29,2.26-1.21,3.94-2.21,4.59-4.82.26-1,.09-2.11.33-3.14s1.9-1.71,2.54-2.18a5.83,5.83,0,0,0,2.09-3.94Z"/>
                  <path class="a772c623-7358-4725-ae54-26f84ccd295d" d="M344,335.4a8.16,8.16,0,0,0,2.52,1.87,9.8,9.8,0,0,1,4.76,4.7c1.08,2.25,2.49,3.86,5,4.45a7.75,7.75,0,0,0,3.76-.31c2.53-.66,4.57-1.42,7.26-1.17,5.45.51,11.15,3.56,15.48-1.52a27.55,27.55,0,0,0,2.12-3.65c1.07-1.72,3-2.94,4.5-4.27a7.31,7.31,0,0,0,2.2-3.2h-1.43c-.9,2-3.05,3.41-4.7,4.89-1.85,1.65-2.46,4-4,5.82-3.5,4.11-9.8,1.3-14.1.62a13.84,13.84,0,0,0-6.7.92c-4.22,1.41-6.56,0-8.55-3.8a9.4,9.4,0,0,0-3.37-3.6c-.68-.45-1.46-.79-2.18-1.18-1.6-.86-1.66-2.14-1.2-3.61h-1.17C343.53,333.31,343.12,334.35,344,335.4Z"/>
                </g>
                <path class="a772c623-7358-4725-ae54-26f84ccd295d" d="M383.37,363.81c-1.58.39-2.66,1.76-4.05,2.49a18.78,18.78,0,0,1-4.51,1.21c-1.66.39-3.2,1-3.81,2.72a4.23,4.23,0,0,0,.11,2.44,57.18,57.18,0,0,0,2,6.45c.91,2.17,2.62,3.39,4.84,2.09a4.15,4.15,0,0,0,1.52-2.5,23.42,23.42,0,0,0,.49-2.78c.38-2.19,2.57-2.45,4.2-2.87,2.05-.53,4.15-1.71,4.3-4.08C388.51,367.64,389.32,362.35,383.37,363.81Zm1.21,8a24,24,0,0,0-4,1.38,3.45,3.45,0,0,0-1.52,2c-.25,1.05-.37,2.12-.6,3.17-.31,1.7-2.92,3.36-4.22.89a11.43,11.43,0,0,1-.71-2.14c-.75-2.39-3.29-6.22-.61-8,1.31-.88,3.2-1,4.7-1.32,2.37-.54,5.07-4.15,7.52-3.5C388.6,365.22,388.11,370.6,384.58,371.84Z"/>
              </g>
              <path class="e47b64e8-c97d-4fd8-91b7-a4a4fe8de7f7" d="M359.22,361.32c-.3-.77-.6-1.54-.88-2.33a19.71,19.71,0,0,1,3.48-1.14c.15,0,.12-.27,0-.28a7.85,7.85,0,0,0-3.72.65,20.79,20.79,0,0,0-.69-2.2c0-.08-.15-.07-.14,0a11.71,11.71,0,0,0,.38,2.36l-.15.06a5.38,5.38,0,0,0-2.86,2.12c-.07.16.12.26.24.19,1-.58,2-1.11,3-1.57a7.33,7.33,0,0,0,1.2,2.18C359.14,361.44,359.26,361.4,359.22,361.32Z"/>
            </g>
            <g>
              <circle class="babba582-b9e2-4eb1-8a15-6ae753b8f3a2" cx="406.61" cy="330.5" r="1.91"/>
              <circle class="babba582-b9e2-4eb1-8a15-6ae753b8f3a2" cx="300.48" cy="330.5" r="1.91"/>
            </g>
            <g>
              <circle class="babba582-b9e2-4eb1-8a15-6ae753b8f3a2" cx="406.61" cy="398.71" r="1.91"/>
              <circle class="babba582-b9e2-4eb1-8a15-6ae753b8f3a2" cx="301.06" cy="398.71" r="1.91"/>
            </g>
          </g>
        </g>
        <g>
          <path class="e47b64e8-c97d-4fd8-91b7-a4a4fe8de7f7" d="M357.13,361.51l-.41-.29c.37-.51.57-.8.57-.81l.42.28S357.51,361,357.13,361.51Z"/>
          <path class="e47b64e8-c97d-4fd8-91b7-a4a4fe8de7f7" d="M312,382l-.09-.49c.58-.12,1.24-.24,1.94-.36l.09.49C313.2,381.72,312.55,381.84,312,382Zm3.88-.67-.08-.49,2-.26.06.5C317.12,381.11,316.47,381.2,315.84,381.29Zm3.9-.45-.05-.5c.69-.06,1.36-.1,2-.12l0,.5Q320.76,380.75,319.74,380.84Zm5.82,0a7.45,7.45,0,0,1-.83,0c-.35,0-.71,0-1.09-.06l0-.5c.38,0,.75,0,1.11.07s.52,0,.78,0h.07v.5h-.06Zm2.06-.2-.09-.49a15.28,15.28,0,0,0,1.87-.49l.16.48A15.86,15.86,0,0,1,327.62,380.61Zm3.8-1.2-.19-.46c.56-.24,1.15-.51,1.77-.82l.22.45C332.59,378.9,332,379.17,331.42,379.41Zm3.56-1.74-.24-.44,1.72-1,.25.43Zm3.43-2-.25-.43,1.7-1,.26.43Zm3.41-2-.24-.43,1.73-1,.23.45Zm3.47-1.85-.23-.44c.57-.29,1.15-.61,1.71-.95l.26.43Q346.16,371.45,345.29,371.89Zm3.4-2.05-.29-.41c.52-.37,1.05-.76,1.56-1.17l.32.39C349.75,369.07,349.22,369.47,348.69,369.84Zm3.1-2.48-.33-.37c.47-.43,1-.88,1.42-1.34l.35.35C352.76,366.47,352.27,366.93,351.79,367.36Zm2.81-2.79-.37-.34c.44-.48.87-1,1.29-1.48l.38.32C355.48,363.58,355.05,364.08,354.6,364.57Z"/>
          <path class="e47b64e8-c97d-4fd8-91b7-a4a4fe8de7f7" d="M309.06,382.57l-.12-.49,1-.22.1.49Z"/>
        </g>
        <circle class="babba582-b9e2-4eb1-8a15-6ae753b8f3a2" cx="307.67" cy="382.66" r="1.73"/>
      </g>
      <rect class="aae15209-20fa-41f0-8be5-d3b5bd373f0d" x="329.43" y="339.92" width="48.76" height="14.16"/>
      <g>
        <path class="ff3a60b1-4a56-429b-bbb4-e779027abc63" d="M334.05,343.52a9.51,9.51,0,0,1,1.68-.14,3,3,0,0,1,2,.51,1.5,1.5,0,0,1,.59,1.26,1.7,1.7,0,0,1-1.2,1.57v0a1.85,1.85,0,0,1,1.47,1.79,1.91,1.91,0,0,1-.61,1.42,3.53,3.53,0,0,1-2.46.67,11.51,11.51,0,0,1-1.43-.08Zm.92,2.92h.84c1,0,1.54-.5,1.54-1.19s-.63-1.17-1.56-1.17a4,4,0,0,0-.82.07Zm0,3.42a5.3,5.3,0,0,0,.78,0c.95,0,1.82-.35,1.82-1.38s-.83-1.38-1.84-1.38H335Z"/>
        <path class="ff3a60b1-4a56-429b-bbb4-e779027abc63" d="M344,349.16c0,.53,0,1,0,1.4h-.83l-.05-.84h0a1.92,1.92,0,0,1-1.69.95c-.8,0-1.77-.44-1.77-2.24v-3h.93v2.83c0,1,.3,1.63,1.15,1.63a1.33,1.33,0,0,0,1.22-.85,1.16,1.16,0,0,0,.09-.47v-3.14H344Z"/>
        <path class="ff3a60b1-4a56-429b-bbb4-e779027abc63" d="M345.58,347c0-.61,0-1.13,0-1.6h.81l0,1h0a1.54,1.54,0,0,1,1.42-1.12,1,1,0,0,1,.26,0v.88a1.51,1.51,0,0,0-.32,0,1.32,1.32,0,0,0-1.25,1.19,2.87,2.87,0,0,0,0,.44v2.73h-.92Z"/>
        <path class="ff3a60b1-4a56-429b-bbb4-e779027abc63" d="M353.57,348a2.5,2.5,0,0,1-2.55,2.71,2.42,2.42,0,0,1-2.45-2.63,2.5,2.5,0,0,1,2.53-2.72A2.43,2.43,0,0,1,353.57,348Zm-4.06.05c0,1.12.64,2,1.55,2s1.56-.83,1.56-2c0-.87-.44-2-1.54-2S349.51,347,349.51,348Z"/>
        <path class="ff3a60b1-4a56-429b-bbb4-e779027abc63" d="M357,343.43h.92v6.36h3v.77h-4Z"/>
        <path class="ff3a60b1-4a56-429b-bbb4-e779027abc63" d="M366.46,348a2.5,2.5,0,0,1-2.55,2.71,2.43,2.43,0,0,1-2.45-2.63,2.5,2.5,0,0,1,2.54-2.72A2.42,2.42,0,0,1,366.46,348Zm-4.06.05c0,1.12.64,2,1.55,2s1.56-.83,1.56-2c0-.87-.44-2-1.53-2S362.4,347,362.4,348Z"/>
        <path class="ff3a60b1-4a56-429b-bbb4-e779027abc63" d="M371.28,350.37a3.54,3.54,0,0,1-1.47.29,2.42,2.42,0,0,1-2.54-2.61,2.6,2.6,0,0,1,2.75-2.72,3.11,3.11,0,0,1,1.29.27l-.22.72a2.09,2.09,0,0,0-1.07-.25,1.77,1.77,0,0,0-1.81,1.94,1.75,1.75,0,0,0,1.77,1.91,2.65,2.65,0,0,0,1.15-.25Z"/>
        <path class="ff3a60b1-4a56-429b-bbb4-e779027abc63" d="M376.94,348a2.5,2.5,0,0,1-2.55,2.71,2.43,2.43,0,0,1-2.45-2.63,2.5,2.5,0,0,1,2.54-2.72A2.42,2.42,0,0,1,376.94,348Zm-4.06.05c0,1.12.65,2,1.56,2s1.55-.83,1.55-2c0-.87-.43-2-1.53-2S372.88,347,372.88,348Z"/>
      </g>
    </g>
    <g>
      <ellipse class="e917fbfe-c1e1-4ef5-a9c7-b597f83bc0cb" cx="204.98" cy="548.26" rx="160" ry="15.71"/>
      <g>
        <g>
          <g>
            <path class="b18aa12b-5bbb-4bba-b8bf-b6ce8d4b0f38" d="M115.09,432a60.11,60.11,0,1,0,60.11,60.11A60.11,60.11,0,0,0,115.09,432Zm0,114.42a54.31,54.31,0,1,1,54.32-54.31A54.31,54.31,0,0,1,115.09,546.44Z"/>
            <path class="efd7c980-4f3c-4cb4-bdb6-7bc387005701" d="M115.09,435.3a56.83,56.83,0,1,0,56.83,56.83A56.83,56.83,0,0,0,115.09,435.3Zm0,108.18a51.35,51.35,0,1,1,51.36-51.35A51.35,51.35,0,0,1,115.09,543.48Z"/>
          </g>
          <rect class="b18aa12b-5bbb-4bba-b8bf-b6ce8d4b0f38" x="258.67" y="363.37" width="6.97" height="47.98"/>
          <path class="f564565b-442d-4f6b-a1ca-80e650b36b9c" d="M285.56,363.37H258.67s-4.81,2.1-5.37,6.17,5.37,7.43,5.37,7.43v-9l26.89-.56Z"/>
          <rect class="e4cab075-29fa-47fd-a0dc-d51208013f4e" x="283.88" y="362.26" width="21.88" height="6.01" rx="2.55"/>
          <rect class="e4cab075-29fa-47fd-a0dc-d51208013f4e" x="270.55" y="372.36" width="21.88" height="6.01" rx="2.55"/>
          <g>
            <path class="bf3bfad5-4a70-4d4d-a500-2721838e3045" d="M189.73,496.58,204.1,528a2.26,2.26,0,0,1-1.08,3h0a2.26,2.26,0,0,1-3-1.07l-14.38-31.46a2.27,2.27,0,0,1,1.08-3h0A2.28,2.28,0,0,1,189.73,496.58Z"/>
            <rect class="bf3bfad5-4a70-4d4d-a500-2721838e3045" x="193.98" y="528.29" width="19.15" height="5.37" rx="2.02" transform="translate(69.83 -21.73) rotate(7.37)"/>
          </g>
          <path class="eae66881-5aba-45f8-b2e0-7405c23ecc75" d="M264.38,419a3.48,3.48,0,0,0-2.87,1l-76.3,75.54a3.49,3.49,0,1,0,4.9,5l74.27-73.53Z"/>
          <path class="eae66881-5aba-45f8-b2e0-7405c23ecc75" d="M261.57,413H163.35a3.49,3.49,0,1,1,0-7h98.22a3.49,3.49,0,1,1,0,7Z"/>
          <rect class="af86175f-b900-4e26-a3a4-098cd246c1a8" x="259.41" y="405.96" width="6.68" height="24.91" transform="translate(540.59 826.96) rotate(177.91)"/>
          <path class="eae66881-5aba-45f8-b2e0-7405c23ecc75" d="M116.5,492.24v.91a1.51,1.51,0,0,0,1.52,1.51h4.91a4.78,4.78,0,0,1,4.6,6l-4.44,16a1.51,1.51,0,0,1-1.5,1.32h0a1.51,1.51,0,0,1-1.51-1.63l.72-9.12a5.66,5.66,0,0,0-5.18-6.09l-1.11-.09a1.47,1.47,0,0,0-.92.22L111.31,504a4.77,4.77,0,0,1-3.6,1.69h-.09a1.52,1.52,0,0,1-1.44-2.06l1.66-4.47-1.18-.2a1.51,1.51,0,0,1-1.21-1.82l.64-2.94a1.53,1.53,0,0,1,.34-.67l2.44-2.8a1.5,1.5,0,0,1,1.29-.51l5,.5A1.52,1.52,0,0,1,116.5,492.24Z"/>
          <path class="eae66881-5aba-45f8-b2e0-7405c23ecc75" d="M120.24,521.92a4.4,4.4,0,0,1-4.4-4.28l-.48-16-2.09,1.19A5.09,5.09,0,0,1,107,495l8-8.82h.12l68-4.13,0,.56-67.92,4.12-7.82,8.66a4.52,4.52,0,0,0-1,4.19,4.53,4.53,0,0,0,6.61,2.78l2.9-1.65.51,16.9a3.76,3.76,0,0,0,1.25,2.72,3.83,3.83,0,0,0,2.83,1l71.76-4.59,0,.56-71.76,4.59Z"/>
          <circle class="eae66881-5aba-45f8-b2e0-7405c23ecc75" cx="120.23" cy="518.04" r="3.85"/>
          <g>
            <path class="efd7c980-4f3c-4cb4-bdb6-7bc387005701" d="M187.88,479.9a18.46,18.46,0,1,0,18.46,18.46A18.48,18.48,0,0,0,187.88,479.9ZM198.5,493l-6.36,1.43a2.19,2.19,0,0,1-2.66-2.14l0-5.95a2.18,2.18,0,0,1,2.81-2.08,14.86,14.86,0,0,1,7.47,5.34A2.18,2.18,0,0,1,198.5,493ZM186,486.42l0,5.87a2.19,2.19,0,0,1-2.66,2.12l-6.1-1.38a2.18,2.18,0,0,1-1.3-3.4,14.86,14.86,0,0,1,7.19-5.29A2.18,2.18,0,0,1,186,486.42Zm-12.94,11.94v0a2.16,2.16,0,0,1,2.64-2.06l6.13,1.39a2.17,2.17,0,0,1,1.35,3.31l-3.78,5.86a2.18,2.18,0,0,1-3.62.06A14.71,14.71,0,0,1,173.07,498.36Zm9,10.8,3.84-6a2.18,2.18,0,0,1,3.65,0l3.93,6a2.18,2.18,0,0,1-1.17,3.27,14.47,14.47,0,0,1-4.44.69,14.85,14.85,0,0,1-4.65-.75A2.19,2.19,0,0,1,182.07,509.16ZM196.23,507l-3.95-6a2.18,2.18,0,0,1,1.35-3.32l6.4-1.44a2.17,2.17,0,0,1,2.65,2.09v.05a14.7,14.7,0,0,1-2.9,8.78A2.18,2.18,0,0,1,196.23,507Z"/>
            <path class="bb44984f-67bd-42bf-9056-017c849911f4" d="M191,494.74a4.65,4.65,0,1,0-.15,6.57A4.65,4.65,0,0,0,191,494.74Z"/>
            <circle class="a52dac5f-01e6-4b07-ac87-e0eb18ff3ad2" cx="187.66" cy="497.95" r="2.73" transform="translate(-314.14 675.07) rotate(-88.79)"/>
          </g>
          <circle class="f60ad301-b633-4caf-a2c6-341ca1b208ab" cx="115.09" cy="492.95" r="6.47" transform="translate(-180.67 82.13) rotate(-22.61)"/>
          <path class="f564565b-442d-4f6b-a1ca-80e650b36b9c" d="M260.22,402.56l3.76-.21a1.6,1.6,0,0,1,1.69,1.51h0a.44.44,0,0,1,.21.34l.11,2a.4.4,0,0,1-.38.42l-6.53.37a.4.4,0,0,1-.42-.38l-.11-2a.44.44,0,0,1,.17-.37h0A1.59,1.59,0,0,1,260.22,402.56Z"/>
          <path class="fbdb74b2-f3cb-47b1-bc94-eea21ebb8632" d="M116.23,493a1.18,1.18,0,1,1-1.18-1.17A1.18,1.18,0,0,1,116.23,493Z"/>
          <path class="ae3ce25e-e0b9-4bd9-a24e-7ff33dc81523" d="M293.77,392.66c-.13,0-.41-.11,0,0Z"/>
          <path class="bf3bfad5-4a70-4d4d-a500-2721838e3045" d="M151.21,388.7c-2.17,0-4.38-.09-7.46-.26a.84.84,0,0,1-.78-.88.81.81,0,0,1,.88-.78,106.43,106.43,0,0,0,16.05-.11,12.79,12.79,0,0,0,4.58-.88c2.66-1.22,4.2-4.09,5.67-7.18a.83.83,0,0,1,1.5.71c-1.61,3.38-3.31,6.53-6.47,8a14.43,14.43,0,0,1-5.17,1C156.24,388.58,153.75,388.7,151.21,388.7Z"/>
          <path class="bf3bfad5-4a70-4d4d-a500-2721838e3045" d="M160.19,405.15a1.26,1.26,0,0,1-1.2-.91l-1.37-4.82a5.43,5.43,0,0,0-5.22-3.94h-3.59a7.94,7.94,0,0,1-7.92-7.93V380a1.25,1.25,0,0,1,2.5,0v7.6a5.43,5.43,0,0,0,5.42,5.43h3.59a8,8,0,0,1,7.62,5.76l1.37,4.82a1.24,1.24,0,0,1-.86,1.54A1.27,1.27,0,0,1,160.19,405.15Z"/>
          <path class="bf3bfad5-4a70-4d4d-a500-2721838e3045" d="M146.32,388.23h-7.23a1.25,1.25,0,1,1,0-2.49h7.23a1.25,1.25,0,1,1,0,2.49Z"/>
          <path class="bf3bfad5-4a70-4d4d-a500-2721838e3045" d="M146.32,392.53h-7.23a1.25,1.25,0,0,1,0-2.5h7.23a1.25,1.25,0,0,1,0,2.5Z"/>
          <g>
            <path class="bf3bfad5-4a70-4d4d-a500-2721838e3045" d="M151.47,387.66l-7-.15a1.76,1.76,0,0,1-1.64-1.22l-1-3.21a1.76,1.76,0,0,1,1.59-2.28l9.79-.52a1.75,1.75,0,0,1,1.68,2.49l-1.79,3.88A1.76,1.76,0,0,1,151.47,387.66Z"/>
            <path class="bec255c3-a7a5-4030-ba54-90897bef2f31" d="M175.62,375.39c-20.69.09-30.58-2.64-39.29-3.13-7.11-.4-7.09,6.36-7.11,7.13h0a3.29,3.29,0,0,0,.91,2.34l.88.92a7.74,7.74,0,0,0,5.44,2.39l9.19.2a17.5,17.5,0,0,0,7.8-1.67,21.49,21.49,0,0,1,4.68-1.56c4.8-1,17.46-1.69,17.46-1.69a2.47,2.47,0,1,0,0-4.93Z"/>
          </g>
          <g>
            <path class="b18aa12b-5bbb-4bba-b8bf-b6ce8d4b0f38" d="M287.13,432a60.11,60.11,0,1,0,60.11,60.11A60.11,60.11,0,0,0,287.13,432Zm0,114.42a54.31,54.31,0,1,1,54.32-54.31A54.31,54.31,0,0,1,287.13,546.44Z"/>
            <path class="bec255c3-a7a5-4030-ba54-90897bef2f31" d="M287.13,435.3A56.83,56.83,0,1,0,344,492.13,56.83,56.83,0,0,0,287.13,435.3Zm0,108.18a51.35,51.35,0,1,1,51.36-51.35A51.35,51.35,0,0,1,287.13,543.48Z"/>
            <path class="efd7c980-4f3c-4cb4-bdb6-7bc387005701" d="M287.13,435.3A56.83,56.83,0,1,0,344,492.13,56.83,56.83,0,0,0,287.13,435.3Zm0,108.18a51.35,51.35,0,1,1,51.36-51.35A51.35,51.35,0,0,1,287.13,543.48Z"/>
            <path class="a27686e9-2254-4ea1-bb7d-cc4e919b8cac" d="M287.17,493a1.18,1.18,0,1,1-1.17-1.17A1.18,1.18,0,0,1,287.17,493Z"/>
            <path class="f60ad301-b633-4caf-a2c6-341ca1b208ab" d="M291.34,494.21a4.4,4.4,0,1,1-4.3-4.49A4.39,4.39,0,0,1,291.34,494.21Z"/>
            <path class="bf3bfad5-4a70-4d4d-a500-2721838e3045" d="M261.36,438.07c8.07,42.77,24.92,57.42,24.92,57.42l1.9-1c-13.41-17.18-17-36.59-20.51-58.25C263.6,437.31,263.22,437.77,261.36,438.07Z"/>
            <g>
              <path class="efd7c980-4f3c-4cb4-bdb6-7bc387005701" d="M289.78,494.18a2.83,2.83,0,1,1-2.77-2.89A2.83,2.83,0,0,1,289.78,494.18Z"/>
              <circle class="bf3bfad5-4a70-4d4d-a500-2721838e3045" cx="286.95" cy="494.12" r="1.26" transform="translate(-264.46 643.92) rotate(-75.05)"/>
            </g>
            <polygon class="f564565b-442d-4f6b-a1ca-80e650b36b9c" points="262.09 441.73 268.34 440.31 266.55 429.63 259.8 430.37 262.09 441.73"/>
          </g>
          <path class="eae66881-5aba-45f8-b2e0-7405c23ecc75" d="M187.66,499.84h-.15l-72.61-6.17a1.86,1.86,0,0,1-1.53-1,1.9,1.9,0,0,1,.07-1.85l46.62-82.27a1.89,1.89,0,0,1,3.21,2l-45,79.65,69.53,5.93a1.89,1.89,0,0,1-.15,3.77Z"/>
          <path class="eae66881-5aba-45f8-b2e0-7405c23ecc75" d="M187.66,500.31a2.36,2.36,0,0,1-2.26-1.69l-28-95.24a2.36,2.36,0,0,1,4.53-1.33l28,95.24a2.35,2.35,0,0,1-1.59,2.93A2.63,2.63,0,0,1,187.66,500.31Z"/>
          <path class="bf3bfad5-4a70-4d4d-a500-2721838e3045" d="M161.54,404.15l-3.45.77a2.47,2.47,0,0,1-2.94-1.87h0a2.47,2.47,0,0,1,1.87-2.94l3.46-.76a2.45,2.45,0,0,1,2.93,1.87h0A2.46,2.46,0,0,1,161.54,404.15Z"/>
          <g>
            <path class="bf3bfad5-4a70-4d4d-a500-2721838e3045" d="M175.81,466.35l11.91,25.16a2.28,2.28,0,0,1-1.08,3h0a2.28,2.28,0,0,1-3-1.08L171.7,468.3a2.28,2.28,0,0,1,1.08-3h0A2.27,2.27,0,0,1,175.81,466.35Z"/>
            <rect class="bf3bfad5-4a70-4d4d-a500-2721838e3045" x="164.83" y="465.57" width="19.15" height="5.37" rx="2.02" transform="translate(259.16 960.7) rotate(-169.34)"/>
          </g>
          <path class="bf3bfad5-4a70-4d4d-a500-2721838e3045" d="M193.81,497.92a6.15,6.15,0,1,1-6.15-6.14A6.15,6.15,0,0,1,193.81,497.92Z"/>
        </g>
        <path class="a5b148b3-241c-499f-945c-0ed171b85bbc" d="M194.47,339.79s8.73,19,14.11,22.71,38.17,3.22,38.17,3.22l-.18-5.77s-28.42-4-30.14-5.65-8.26-18.9-8.26-18.9Z"/>
        <path class="e2aad5f2-9a35-4024-806b-3e48e8a4cb06" d="M142.33,394.12l1.88,63.14s7.48,1.5,12.9.94a25.82,25.82,0,0,0,8-1.87s2.62-27.86,2.62-30.11,2.64-11.42,2.64-11.42,1.85,20.58,3.16,25.44,1.87,15.9,1.87,15.9,8.23,1.31,11.6,1.12,11.59-1.12,11.59-1.12-2.44-63-3-62.93-18-4-18-4Z"/>
        <rect class="b18aa12b-5bbb-4bba-b8bf-b6ce8d4b0f38" x="163.1" y="329.28" width="10.94" height="13.16" rx="0.87"/>
        <path class="a10a3270-0418-4726-9623-c642833264c8" d="M157.48,297.86s-13.74,4.07-19.35,7.71-10.38,29.18-10.38,29.18l16.83,6.73s-.47,14.59-.75,25.63-1.5,27-1.5,27,25.35,2.17,29,2.17,25-3.18,25-3.18-1.12-33.48-1.12-35.73,1.12-17.77,1.12-17.77L212.1,334s-5-23.19-7.67-27.31-19.17-8.55-19.17-8.55Z"/>
        <rect class="efd7c980-4f3c-4cb4-bdb6-7bc387005701" x="163.1" y="330.54" width="10.94" height="13.16" rx="0.87"/>
        <rect class="ec03fed1-ecda-46ce-ae8f-7f8af7dea8a8" x="168.57" y="331.38" width="4.4" height="1.54"/>
        <path class="ef522585-3210-49e4-b8d4-08069314dfe5" d="M144.58,341.48a42.48,42.48,0,0,1,1.12-10.84c1.31-4.49,3.56-11.6,3.56-11.6s-3.57,14.77-2.35,18.33,2.35,7.85,2.35,7.85l10.84-2.61,10.31,4.46s-11.62,2.27-12.93,3.39-6.17,4.86-6.73,6.73.19,12.72,1.5,16.65,2,5.61,2,5.61-5.52,4.87-6.83,6.17-4.9,6.37-4.9,6.37,1.31-24.69,1.67-36.47S144.58,341.48,144.58,341.48Z"/>
        <path class="a5b148b3-241c-499f-945c-0ed171b85bbc" d="M127.75,334.75s-3.56,22.26-2.62,26.56,7.23,3.18,13.09,0,19.26-14.24,19.26-14.24l-3.17-5.59-13.08,5.59,1.22-6.44Z"/>
        <path class="a5b148b3-241c-499f-945c-0ed171b85bbc" d="M154.21,343.26l.1-1.78s3.92-3.46,4.76-3.92,4-2.16,4-2.16v2.44a26.56,26.56,0,0,0,6.07.84,33,33,0,0,0,4.87-1.05,2.55,2.55,0,0,1,.11,1.61c-.28.56-2.54,1.5-2.54,1.5v.93s1.62,0,2-.47a2.06,2.06,0,0,0,.38-1.35s1.59.42,1.59,1.54-1.41,2.43-1.41,2.43a6.15,6.15,0,0,1-.84,2.53c-.65.84-2.15,1.59-4.58,1.49s-9.54-1.31-9.54-1.31l-1.78.54Z"/>
        <path class="a5b148b3-241c-499f-945c-0ed171b85bbc" d="M246.75,365.72s6.5,4.5,8.62,4.92,5.78.57,6.78,1,1.58-1.25-2-2.59-4.44-2.33-4.69-2.77,1.59-1.7,2.92-2,9.13-.26,9.15-.54a13.34,13.34,0,0,0-7-5.8c-4.14-1.21-10.84,1-10.84,1l-3.11,1Z"/>
        <g>
          <path class="a5b148b3-241c-499f-945c-0ed171b85bbc" d="M145.29,456.14s-.52,30.49.41,38.9,2.62,42.27,2.62,42.27,3.93,2.25,5.24,2.06,4.49-2.43,4.49-2.43,2.43-35.73,3.36-48.26,1.31-32.54,1.31-32.54Z"/>
          <path class="a137c316-071f-4efd-b389-cc17d85bcdaf" d="M148.32,537.31l9.73-.37v16.79H136.72s-1.26-5.9,2.39-7.58a41.7,41.7,0,0,1,9.12-2.52Z"/>
        </g>
        <g>
          <path class="a5b148b3-241c-499f-945c-0ed171b85bbc" d="M195.18,456.14s.51,30.49-.42,38.9-2.62,42.27-2.62,42.27-3.93,2.25-5.24,2.06-4.49-2.43-4.49-2.43-2.43-35.73-3.36-48.26-1.31-32.54-1.31-32.54Z"/>
          <path class="a08e6d99-b92d-4dae-b610-0a1a62ac7f9e" d="M157.78,537.13l.27-.19s.25-3.72.62-9.17H147.82c.26,4.86.46,8.7.5,9.54Z"/>
          <path class="a08e6d99-b92d-4dae-b610-0a1a62ac7f9e" d="M181.79,527.77c.37,5.45.62,9.17.62,9.17s3.18,2.24,4.49,2.43,5.24-2.06,5.24-2.06.2-4,.5-9.54Z"/>
          <path class="a137c316-071f-4efd-b389-cc17d85bcdaf" d="M192.14,537.31l-9.73-.37v16.79h21.33s1.26-5.9-2.39-7.58a41.55,41.55,0,0,0-9.12-2.52Z"/>
        </g>
        <rect class="f564565b-442d-4f6b-a1ca-80e650b36b9c" x="258.67" y="373.61" width="13.28" height="4.21"/>
        <polygon class="ad98be64-a6ec-4c35-a146-8f2ff7b54f89" points="141.23 347.07 136.58 349.44 137.84 338.79 142.45 340.63 141.23 347.07"/>
        <path class="a5b148b3-241c-499f-945c-0ed171b85bbc" d="M163.94,283.69l-.7,10.8-5.76,3.37s3.09,7.57,13.61,7.71,14.17-7.43,14.17-7.43l-7.57-3.51-.85-9.68Z"/>
        <g>
          <path class="ad98be64-a6ec-4c35-a146-8f2ff7b54f89" d="M163.54,288.51s3,3.09,6.41,3.69,7.33-2.27,7.33-2.27l-.39-4.47-12.95-1.77Z"/>
          <g>
            <path class="ba396391-f969-475c-a738-13580fb3e008" d="M153.2,268.3a41.05,41.05,0,0,1-.55-10.95,13.88,13.88,0,0,1,4.43-9.22s4.72-6.84,15.63-6.21,16.08,6.18,17,16-1.5,13.72-1.5,13.72l-21.67,4.54-12.08-6.3Z"/>
            <path class="a5b148b3-241c-499f-945c-0ed171b85bbc" d="M156.9,269.37s-.91-2.24-3-1.8.26,5,1.32,7.26,2.4,2.28,2.4,2.28,2.74,6.53,7.3,9.64,6.39,2.85,10.19,1.4,7.71-7.53,8.94-10.59a4.38,4.38,0,0,0,1.75-.34c.78-.37,3.39-4.74,3.54-6.77s-.9-2.47-2.17-2.14-2,2-2,2-.14-6.08-1.43-8.52-7.23-4.33-7.23-4.33.93,1.57-3.8,1.65a12.72,12.72,0,0,1-10-4.59c-1.88-2.26-2.35-2.76-2.35-2.76s-2.34,5-2.79,7.85S156.9,269.37,156.9,269.37Z"/>
            <g>
              <path class="e6b3c2a4-c7eb-43c0-9bbd-b2262a0dedff" d="M166.28,280.28a22.53,22.53,0,0,0,4.46.69,19.21,19.21,0,0,0,4.7-.46,5.13,5.13,0,0,1-4.67,3.5C167.1,284.16,166.28,280.28,166.28,280.28Z"/>
              <path class="ff3a60b1-4a56-429b-bbb4-e779027abc63" d="M168.46,282.15a16.11,16.11,0,0,0,4.43.11l1.87-.43a5,5,0,0,0,.68-1.32,19.21,19.21,0,0,1-4.7.46,22.53,22.53,0,0,1-4.46-.69,5.85,5.85,0,0,0,.41,1.13A6.28,6.28,0,0,0,168.46,282.15Z"/>
            </g>
            <path class="ba396391-f969-475c-a738-13580fb3e008" d="M159.4,265.87a6.5,6.5,0,0,1,2.35-1.1c1.26-.26,4.71.6,5.44.13s.66-1.33-.39-1.6a11.07,11.07,0,0,0-4.73-.12C160.18,263.57,159.4,265.87,159.4,265.87Z"/>
            <ellipse class="f564565b-442d-4f6b-a1ca-80e650b36b9c" cx="164.08" cy="270.46" rx="2.1" ry="1.74" transform="translate(-110.28 427.92) rotate(-88.61)"/>
            <path class="ba396391-f969-475c-a738-13580fb3e008" d="M182.77,266.44a6.46,6.46,0,0,0-2.29-1.22c-1.25-.32-4.74.37-5.45-.13s-.59-1.36.48-1.58a11,11,0,0,1,4.72.12C182.1,264.1,182.77,266.44,182.77,266.44Z"/>
            <ellipse class="f564565b-442d-4f6b-a1ca-80e650b36b9c" cx="177.87" cy="270.79" rx="2.1" ry="1.74" transform="translate(-97.16 442.03) rotate(-88.61)"/>
            <path class="ad98be64-a6ec-4c35-a146-8f2ff7b54f89" d="M173.77,276.1c-.4-.27-1.17.12-2.51.16a8.54,8.54,0,0,1-2.81-.52v-.16c-.39-.09.3,2.07,2.37,2.15S174.16,276.37,173.77,276.1Z"/>
            <path class="ad98be64-a6ec-4c35-a146-8f2ff7b54f89" d="M154.78,269.32a1.25,1.25,0,0,1,.5,1.27c-.22.77-.67,1-.3,1.74s.74,1.79,1.36,2.1,1,.21.73-.27-1.19-.52-1.13-1.24a4.4,4.4,0,0,0,.06-2.27C155.69,269.54,155.37,268.61,154.78,269.32Z"/>
            <path class="ad98be64-a6ec-4c35-a146-8f2ff7b54f89" d="M187.91,270.13a1.23,1.23,0,0,0-.56,1.24c.17.77.61,1.05.2,1.75s-.82,1.76-1.45,2-1,.17-.72-.31,1.22-.45,1.19-1.17a4.5,4.5,0,0,1,.05-2.27C187,270.3,187.35,269.39,187.91,270.13Z"/>
          </g>
        </g>
      </g>
    </g>
  </g>
</svg>
